# This file uses centimeters as units for non-parametric coordinates.

v 0.000000 0.000000 0.000000
v 5.000000 0.000000 0.000000
v 0.000000 1.000000 0.000000
v 5.000000 1.000000 0.000000
v 0.000000 1.000000 -5.000000
v 5.000000 1.000000 -5.000000
v 0.000000 0.000000 -5.000000
v 5.000000 0.000000 -5.000000
vt 0.557443 0.825550
vt 0.286151 0.665960
vt 0.318069 0.611702
vt 0.589361 0.771292
vt 0.477660 0.340410
vt 0.748952 0.500000
vt 0.509578 0.286151
vt 0.780870 0.445742
vt 0.669168 0.014859
vt 0.940460 0.174450
vt 0.014859 0.506370
vt 0.046777 0.452111
vt 0.828735 0.985141
vt 0.860653 0.930882
vn 0.000000 0.000000 1.000000
vn 0.000000 0.000000 1.000000
vn 0.000000 0.000000 1.000000
vn 0.000000 0.000000 1.000000
vn 0.000000 1.000000 0.000000
vn 0.000000 1.000000 0.000000
vn 0.000000 1.000000 0.000000
vn 0.000000 1.000000 0.000000
vn 0.000000 0.000000 -1.000000
vn 0.000000 0.000000 -1.000000
vn 0.000000 0.000000 -1.000000
vn 0.000000 0.000000 -1.000000
vn 0.000000 -1.000000 0.000000
vn 0.000000 -1.000000 0.000000
vn 0.000000 -1.000000 0.000000
vn 0.000000 -1.000000 0.000000
vn 1.000000 0.000000 0.000000
vn 1.000000 0.000000 0.000000
vn 1.000000 0.000000 0.000000
vn 1.000000 0.000000 0.000000
vn -1.000000 0.000000 0.000000
vn -1.000000 0.000000 0.000000
vn -1.000000 0.000000 0.000000
vn -1.000000 0.000000 0.000000
s off
f 1/1/1 2/2/2 4/3/3 3/4/4
f 3/4/5 4/3/6 6/5/7 5/6/8
f 5/6/9 6/5/10 8/7/11 7/8/12
f 7/8/13 8/7/14 2/9/15 1/10/16
f 2/2/17 8/11/18 6/12/19 4/3/20
f 7/13/21 1/1/22 3/4/23 5/14/24
