# This file uses centimeters as units for non-parametric coordinates.

v 0.000000 0.000000 -5.000000
v 0.000000 0.000000 0.000000
v 0.000000 1.000000 -5.000000
v 0.000000 1.000000 0.000000
v 1.000000 1.000000 -5.000000
v 1.000000 1.000000 0.000000
v 1.000000 0.000000 -5.000000
v 1.000000 0.000000 0.000000
vt 0.549940 0.887551
vt 0.146902 0.887742
vt 0.146863 0.807135
vt 0.549902 0.806943
vt 0.146825 0.726527
vt 0.549863 0.726335
vt 0.146787 0.645919
vt 0.549825 0.645728
vt 0.146748 0.565312
vt 0.549787 0.565120
vt 0.066294 0.887781
vt 0.066256 0.807173
vt 0.630548 0.887512
vt 0.630509 0.806905
vn -1.000000 0.000000 0.000000
vn -1.000000 0.000000 0.000000
vn -1.000000 0.000000 0.000000
vn -1.000000 0.000000 0.000000
vn 0.000000 1.000000 0.000000
vn 0.000000 1.000000 0.000000
vn 0.000000 1.000000 0.000000
vn 0.000000 1.000000 0.000000
vn 1.000000 0.000000 -0.000000
vn 1.000000 0.000000 -0.000000
vn 1.000000 0.000000 -0.000000
vn 1.000000 0.000000 -0.000000
vn 0.000000 -1.000000 0.000000
vn 0.000000 -1.000000 0.000000
vn 0.000000 -1.000000 0.000000
vn 0.000000 -1.000000 0.000000
vn 0.000000 0.000000 1.000000
vn 0.000000 0.000000 1.000000
vn 0.000000 0.000000 1.000000
vn 0.000000 0.000000 1.000000
vn -0.000000 0.000000 -1.000000
vn -0.000000 0.000000 -1.000000
vn -0.000000 0.000000 -1.000000
vn -0.000000 0.000000 -1.000000
s off
f 1/1/1 2/2/2 4/3/3 3/4/4
f 3/4/5 4/3/6 6/5/7 5/6/8
f 5/6/9 6/5/10 8/7/11 7/8/12
f 7/8/13 8/7/14 2/9/15 1/10/16
f 2/2/17 8/11/18 6/12/19 4/3/20
f 7/13/21 1/1/22 3/4/23 5/14/24
