# This file uses centimeters as units for non-parametric coordinates.

v -2.500000 -0.500000 1.500000
v 2.500000 -0.500000 1.500000
v -2.500000 0.500000 1.500000
v 2.500000 0.500000 1.500000
v -2.500000 0.500000 -1.500000
v 2.500000 0.500000 -1.500000
v -2.500000 -0.500000 -1.500000
v 2.500000 -0.500000 -1.500000
vt 0.749652 0.707495
vt 0.373946 0.706339
vt 0.374177 0.631198
vt 0.749883 0.632354
vt 0.374871 0.405775
vt 0.750576 0.406931
vt 0.375102 0.330634
vt 0.750808 0.331789
vt 0.375795 0.105210
vt 0.751501 0.106366
vt 0.148523 0.705646
vt 0.148754 0.630505
vt 0.975075 0.708189
vt 0.975306 0.633048
vn 0.000000 0.000000 1.000000
vn 0.000000 0.000000 1.000000
vn 0.000000 0.000000 1.000000
vn 0.000000 0.000000 1.000000
vn 0.000000 1.000000 0.000000
vn 0.000000 1.000000 0.000000
vn 0.000000 1.000000 0.000000
vn 0.000000 1.000000 0.000000
vn 0.000000 0.000000 -1.000000
vn 0.000000 0.000000 -1.000000
vn 0.000000 0.000000 -1.000000
vn 0.000000 0.000000 -1.000000
vn 0.000000 -1.000000 0.000000
vn 0.000000 -1.000000 0.000000
vn 0.000000 -1.000000 0.000000
vn 0.000000 -1.000000 0.000000
vn 1.000000 0.000000 0.000000
vn 1.000000 0.000000 0.000000
vn 1.000000 0.000000 0.000000
vn 1.000000 0.000000 0.000000
vn -1.000000 0.000000 0.000000
vn -1.000000 0.000000 0.000000
vn -1.000000 0.000000 0.000000
vn -1.000000 0.000000 0.000000
s off
f 1/1/1 2/2/2 4/3/3 3/4/4
f 3/4/5 4/3/6 6/5/7 5/6/8
f 5/6/9 6/5/10 8/7/11 7/8/12
f 7/8/13 8/7/14 2/9/15 1/10/16
f 2/2/17 8/11/18 6/12/19 4/3/20
f 7/13/21 1/1/22 3/4/23 5/14/24
