# This file uses centimeters as units for non-parametric coordinates.

v -2.500000 -2.500000 2.500000
v 2.500000 -2.500000 2.500000
v -2.500000 1.250000 1.250000
v 2.500000 1.250000 1.250000
v -2.500000 2.500000 -2.500000
v 2.500000 2.500000 -2.500000
v -2.500000 -2.500000 -2.500000
v 2.500000 -2.500000 -2.500000
v -2.500000 2.126102 -0.251102
v 2.500000 2.126102 -0.251102
v -2.500000 -0.251102 2.126102
v 2.500000 -0.251102 2.126102
v -2.500000 1.250000 -2.500000
v 2.500000 1.250000 -2.500000
v 2.500000 -2.500000 1.250000
v -2.500000 -2.500000 1.250000
v -2.500000 -1.250000 2.500000
v 2.500000 -1.250000 2.500000
v 2.500000 -1.250000 1.250000
v 2.500000 -1.250000 -2.500000
v -2.500000 -1.250000 -2.500000
v -2.500000 -1.250000 1.250000
v -2.500000 -2.500000 -1.250000
v 2.500000 -2.500000 -1.250000
v 2.500000 -1.250000 -1.250000
v 2.500000 1.250000 -1.250000
v 2.500000 2.500000 -1.250000
v -2.500000 2.500000 -1.250000
v -2.500000 1.250000 -1.250000
v -2.500000 -1.250000 -1.250000
vt 0.323563 0.321745
vt 0.597384 0.320592
vt 0.597051 0.378264
vt 0.324417 0.379441
vt 0.326590 0.649876
vt 0.325738 0.514663
vt 0.596953 0.513457
vt 0.597322 0.648660
vt 0.327940 0.920294
vt 0.327300 0.785086
vt 0.597835 0.783866
vt 0.598416 0.919073
vt 0.775489 0.142604
vt 0.728663 0.271716
vt 0.598591 0.226625
vt 0.650507 0.099165
vt 0.191689 0.270998
vt 0.144789 0.142068
vt 0.270237 0.097977
vt 0.321508 0.227713
vt 0.330857 0.077312
vt 0.589465 0.079385
vt 0.590165 0.135434
vt 0.330198 0.133716
vt 0.325161 0.447054
vt 0.596918 0.445859
vt 0.660908 0.298180
vt 0.705629 0.335355
vt 0.259193 0.298124
vt 0.214502 0.334839
vt 0.598718 0.986677
vt 0.328249 0.987898
vt 0.323520 0.012423
vt 0.598204 0.012102
vt 0.668035 0.033402
vt 0.796805 0.078254
vt 0.597566 0.716263
vt 0.326957 0.717481
vt 0.123396 0.077574
vt 0.252415 0.031554
vt 0.839035 0.164794
vt 0.860897 0.100331
vt 0.792612 0.294124
vt 0.769589 0.357939
vt 0.150580 0.357254
vt 0.127776 0.293356
vt 0.081173 0.164299
vt 0.059375 0.099865
vn 0.000000 0.894427 0.447214
vn 0.000000 0.894427 0.447214
vn 0.000000 0.986459 0.164006
vn 0.000000 0.986459 0.164006
vn 0.000000 0.000000 -1.000000
vn 0.000000 0.000000 -1.000000
vn 0.000000 0.000000 -1.000000
vn 0.000000 0.000000 -1.000000
vn 0.000000 -1.000000 0.000000
vn 0.000000 -1.000000 0.000000
vn 0.000000 -1.000000 0.000000
vn 0.000000 -1.000000 0.000000
vn 1.000000 0.000000 0.000000
vn 1.000000 0.000000 0.000000
vn 1.000000 0.000000 0.000000
vn 1.000000 0.000000 0.000000
vn -1.000000 0.000000 0.000000
vn -1.000000 0.000000 0.000000
vn -1.000000 0.000000 0.000000
vn -1.000000 0.000000 0.000000
vn 0.000000 0.164007 0.986459
vn 0.000000 0.164007 0.986459
vn 0.000000 0.447214 0.894427
vn 0.000000 0.447214 0.894427
vn 0.000000 0.000000 -1.000000
vn 0.000000 0.000000 -1.000000
vn 0.000000 0.000000 -1.000000
vn 0.000000 0.000000 -1.000000
vn 1.000000 0.000000 0.000000
vn 1.000000 0.000000 0.000000
vn 1.000000 0.000000 0.000000
vn 1.000000 0.000000 0.000000
vn -1.000000 0.000000 0.000000
vn -1.000000 0.000000 0.000000
vn -1.000000 0.000000 0.000000
vn -1.000000 0.000000 0.000000
vn 0.000000 -1.000000 0.000000
vn 0.000000 -1.000000 0.000000
vn 0.000000 -1.000000 0.000000
vn 0.000000 -1.000000 0.000000
vn 0.000000 0.000000 1.000000
vn 0.000000 0.000000 1.000000
vn 0.000000 0.164007 0.986459
vn 0.000000 0.164007 0.986459
vn 1.000000 0.000000 0.000000
vn 1.000000 0.000000 0.000000
vn 1.000000 0.000000 0.000000
vn 1.000000 0.000000 0.000000
vn 1.000000 0.000000 0.000000
vn 1.000000 0.000000 0.000000
vn 1.000000 0.000000 0.000000
vn 1.000000 0.000000 0.000000
vn 0.000000 0.000000 -1.000000
vn 0.000000 0.000000 -1.000000
vn 0.000000 0.000000 -1.000000
vn 0.000000 0.000000 -1.000000
vn -1.000000 0.000000 0.000000
vn -1.000000 0.000000 0.000000
vn -1.000000 0.000000 0.000000
vn -1.000000 0.000000 0.000000
vn -1.000000 0.000000 0.000000
vn -1.000000 0.000000 0.000000
vn -1.000000 0.000000 0.000000
vn -1.000000 0.000000 0.000000
vn 0.000000 -1.000000 0.000000
vn 0.000000 -1.000000 0.000000
vn 0.000000 -1.000000 0.000000
vn 0.000000 -1.000000 0.000000
vn 1.000000 0.000000 0.000000
vn 1.000000 0.000000 0.000000
vn 1.000000 0.000000 0.000000
vn 1.000000 0.000000 0.000000
vn 1.000000 0.000000 0.000000
vn 1.000000 0.000000 0.000000
vn 1.000000 0.000000 0.000000
vn 1.000000 0.000000 0.000000
vn 1.000000 0.000000 0.000000
vn 1.000000 0.000000 0.000000
vn 1.000000 0.000000 0.000000
vn 1.000000 0.000000 0.000000
vn 0.000000 0.986459 0.164006
vn 0.000000 0.986459 0.164006
vn 0.000000 1.000000 0.000000
vn 0.000000 1.000000 0.000000
vn -1.000000 0.000000 0.000000
vn -1.000000 0.000000 0.000000
vn -1.000000 0.000000 0.000000
vn -1.000000 0.000000 0.000000
vn -1.000000 0.000000 0.000000
vn -1.000000 0.000000 0.000000
vn -1.000000 0.000000 0.000000
vn -1.000000 0.000000 0.000000
vn -1.000000 0.000000 0.000000
vn -1.000000 0.000000 0.000000
vn -1.000000 0.000000 0.000000
vn -1.000000 0.000000 0.000000
vn 0.000000 0.447214 0.894427
vn 0.000000 0.447214 0.894427
vn 0.000000 0.707107 0.707107
vn 0.000000 0.707107 0.707107
vn 1.000000 0.000000 0.000000
vn 1.000000 0.000000 0.000000
vn 1.000000 0.000000 0.000000
vn 1.000000 0.000000 0.000000
vn -1.000000 0.000000 0.000000
vn -1.000000 0.000000 0.000000
vn -1.000000 0.000000 0.000000
vn -1.000000 0.000000 0.000000
vn 0.000000 0.707107 0.707107
vn 0.000000 0.707107 0.707107
vn 0.000000 0.894427 0.447214
vn 0.000000 0.894427 0.447214
s off
f 9/1/1 10/2/2 27/3/3 28/4/4
f 21/5/5 13/6/6 14/7/7 20/8/8
f 16/9/9 23/10/10 24/11/11 15/12/12
f 25/13/13 26/14/14 4/15/15 19/16/16
f 29/17/17 30/18/18 22/19/19 3/20/20
f 17/21/21 18/22/22 12/23/23 11/24/24
f 14/7/25 13/6/26 5/25/27 6/26/28
f 10/27/29 4/15/30 26/14/31 27/28/32
f 29/17/33 3/20/34 9/29/35 28/30/36
f 16/9/37 15/12/38 2/31/39 1/32/40
f 1/33/41 2/34/42 18/22/43 17/21/44
f 15/35/45 19/16/46 18/22/47 2/34/48
f 24/36/49 25/13/50 19/16/51 15/35/52
f 21/5/53 20/8/54 8/37/55 7/38/56
f 22/19/57 30/18/58 23/39/59 16/40/60
f 22/19/61 16/40/62 1/33/63 17/21/64
f 7/38/65 8/37/66 24/11/67 23/10/68
f 20/41/69 25/13/70 24/36/71 8/42/72
f 20/41/73 14/43/74 26/14/75 25/13/76
f 26/14/77 14/43/78 6/44/79 27/28/80
f 28/4/81 27/3/82 6/26/83 5/25/84
f 5/45/85 13/46/86 29/17/87 28/30/88
f 30/18/89 29/17/90 13/46/91 21/47/92
f 7/48/93 23/39/94 30/18/95 21/47/96
f 11/24/97 12/23/98 4/15/99 3/20/100
f 19/16/101 4/15/102 12/23/103 18/22/104
f 11/24/105 3/20/106 22/19/107 17/21/108
f 3/20/109 4/15/110 10/2/111 9/1/112
