# This file uses centimeters as units for non-parametric coordinates.

v -2.500000 -1.500000 1.500000
v 2.500000 -1.500000 1.500000
v -2.500000 -0.623676 -0.623676
v 2.500000 -0.623676 -0.623676
v -2.500000 1.500000 -1.500000
v 2.500000 1.500000 -1.500000
v -2.500000 -1.500000 -1.500000
v 2.500000 -1.500000 -1.500000
v 2.500000 -1.500000 0.000000
v -2.500000 -1.500000 0.000000
v 2.500000 0.000000 -1.500000
v -2.500000 0.000000 -1.500000
v -2.500000 -1.500000 -1.125000
v 2.500000 -1.500000 -1.125000
v 2.500000 0.074946 -1.050054
v -2.500000 0.074946 -1.050054
v -2.500000 -1.050054 0.074946
v 2.500000 -1.050054 0.074946
v 2.500000 -1.125000 -1.125000
v 2.500000 -1.125000 -1.500000
v -2.500000 -1.125000 -1.500000
v -2.500000 -1.125000 -1.125000
v 2.500000 0.750000 -1.312500
v -2.500000 0.750000 -1.312500
v -2.500000 -1.312500 0.750000
v 2.500000 -1.312500 0.750000
vt 0.120206 0.500000
vt 0.447464 0.500000
vt 0.447464 0.553569
vt 0.120206 0.553569
vt 0.447464 0.749752
vt 0.120206 0.749752
vt 0.120206 0.651574
vt 0.447464 0.651574
vt 0.447464 0.250248
vt 0.120206 0.250248
vt 0.120206 0.176615
vt 0.447464 0.176615
vt 0.447464 0.348426
vt 0.120206 0.348426
vt 0.120206 0.446431
vt 0.447464 0.446431
vt 0.625014 0.255154
vt 0.597107 0.209428
vt 0.551381 0.181521
vt 0.629919 0.176615
vt 0.447464 0.823385
vt 0.120206 0.823385
vt 0.515465 0.413292
vt 0.487558 0.459018
vt 0.482653 0.380479
vt 0.561191 0.385385
vt 0.120206 0.152071
vt 0.447464 0.152071
vt 0.654464 0.176615
vt 0.654464 0.250248
vt 0.642191 0.299337
vt 0.654464 0.348426
vt 0.447464 0.600975
vt 0.120206 0.600975
vt 0.470381 0.503201
vt 0.458108 0.552290
vt 0.458108 0.454112
vt 0.458108 0.380479
vt 0.120206 0.399026
vt 0.447464 0.399026
vt 0.507197 0.164343
vt 0.458108 0.152071
vt 0.556286 0.152071
vt 0.629919 0.152071
vt 0.654464 0.152071
vt 0.447464 0.847929
vt 0.120206 0.847929
vt 0.458108 0.355935
vt 0.482653 0.355935
vt 0.556286 0.355935
vt 0.605375 0.368207
vt 0.654464 0.355935
vn 0.000000 0.707107 0.707107
vn 0.000000 0.707107 0.707107
vn 0.000000 0.448246 0.893910
vn 0.000000 0.448246 0.893910
vn 0.000000 0.000000 -1.000000
vn 0.000000 0.000000 -1.000000
vn 0.000000 0.000000 -1.000000
vn 0.000000 0.000000 -1.000000
vn 0.000000 -1.000000 0.000000
vn 0.000000 -1.000000 0.000000
vn 0.000000 -1.000000 0.000000
vn 0.000000 -1.000000 0.000000
vn 0.000000 -1.000000 0.000000
vn 0.000000 -1.000000 0.000000
vn 0.000000 -1.000000 0.000000
vn 0.000000 -1.000000 0.000000
vn 0.000000 0.707107 0.707107
vn 0.000000 0.707107 0.707107
vn 0.000000 0.893910 0.448246
vn 0.000000 0.893910 0.448246
vn 1.000000 0.000000 0.000000
vn 1.000000 0.000000 0.000000
vn 1.000000 0.000000 0.000000
vn 0.000000 0.000000 -1.000000
vn 0.000000 0.000000 -1.000000
vn 0.000000 0.000000 -1.000000
vn 0.000000 0.000000 -1.000000
vn -1.000000 0.000000 0.000000
vn -1.000000 0.000000 0.000000
vn -1.000000 0.000000 0.000000
vn 0.000000 -1.000000 0.000000
vn 0.000000 -1.000000 0.000000
vn 0.000000 -1.000000 0.000000
vn 0.000000 -1.000000 0.000000
vn 1.000000 0.000000 0.000000
vn 1.000000 0.000000 0.000000
vn 1.000000 0.000000 0.000000
vn 1.000000 0.000000 0.000000
vn 1.000000 0.000000 0.000000
vn 1.000000 0.000000 0.000000
vn 1.000000 0.000000 0.000000
vn 1.000000 0.000000 0.000000
vn 0.000000 0.448246 0.893910
vn 0.000000 0.448246 0.893910
vn 0.000000 0.301089 0.953596
vn 0.000000 0.301089 0.953596
vn -1.000000 0.000000 0.000000
vn -1.000000 0.000000 0.000000
vn -1.000000 0.000000 0.000000
vn -1.000000 0.000000 0.000000
vn -1.000000 0.000000 0.000000
vn -1.000000 0.000000 0.000000
vn -1.000000 0.000000 0.000000
vn -1.000000 0.000000 0.000000
vn 0.000000 0.953596 0.301089
vn 0.000000 0.953596 0.301089
vn 0.000000 0.893910 0.448246
vn 0.000000 0.893910 0.448246
vn 1.000000 0.000001 0.000000
vn 1.000000 0.000001 0.000000
vn 1.000000 0.000001 0.000000
vn 1.000000 0.000001 0.000000
vn 1.000000 0.000000 0.000000
vn 1.000000 0.000000 0.000000
vn 1.000000 0.000000 0.000000
vn 1.000000 0.000000 0.000000
vn 1.000000 0.000000 0.000000
vn 1.000000 0.000000 0.000000
vn 1.000000 0.000000 0.000000
vn 1.000000 0.000000 0.000000
vn 0.000000 0.000000 -1.000000
vn 0.000000 0.000000 -1.000000
vn 0.000000 0.000000 -1.000000
vn 0.000000 0.000000 -1.000000
vn -1.000000 0.000000 0.000000
vn -1.000000 0.000000 0.000000
vn -1.000000 0.000000 0.000000
vn -1.000000 0.000000 0.000000
vn -1.000000 0.000000 0.000000
vn -1.000000 0.000000 0.000000
vn -1.000000 0.000000 0.000000
vn -1.000000 0.000000 0.000000
vn -1.000000 0.000000 0.000000
vn -1.000000 0.000000 0.000000
vn -1.000000 0.000000 0.000000
vn -1.000000 0.000000 0.000000
vn 0.000000 0.301089 0.953596
vn 0.000000 0.301089 0.953596
vn 0.000000 0.242536 0.970142
vn 0.000000 0.242536 0.970142
vn 0.000000 0.970142 0.242536
vn 0.000000 0.970142 0.242536
vn 0.000000 0.953596 0.301089
vn 0.000000 0.953596 0.301089
vn 1.000000 0.000000 0.000000
vn -1.000000 0.000000 0.000000
s off
f 3/1/1 4/2/2 15/3/3 16/4/4
f 11/5/5 12/6/6 5/7/7 6/8/8
f 9/9/9 10/10/10 13/11/11 14/12/12
f 10/10/13 9/9/14 2/13/15 1/14/16
f 4/2/17 3/1/18 17/15/19 18/16/20
s 1
f 15/17/21 4/18/22 19/20/23
s off
f 12/6/24 11/5/25 20/21/26 21/22/27
s 2
f 3/23/28 22/25/29 17/26/30
s off
f 14/12/31 13/11/32 7/27/33 8/28/34
f 20/29/35 11/30/36 15/17/37 19/20/38
f 23/31/39 15/17/40 11/30/41 6/32/42
f 16/4/43 15/3/44 23/33/45 24/34/46
f 16/24/47 24/35/48 5/36/49 12/37/50
f 16/24/51 12/37/52 21/38/53 22/25/54
f 25/39/55 26/40/56 18/16/57 17/15/58
f 18/19/59 26/41/60 2/42/61 9/43/62
f 18/19/63 9/43/64 14/44/65 19/20/66
f 20/29/67 19/20/68 14/44/69 8/45/70
f 21/22/71 20/21/72 8/46/73 7/47/74
f 22/25/75 21/38/76 7/48/77 13/49/78
f 13/49/79 10/50/80 17/26/81 22/25/82
f 25/51/83 17/26/84 10/50/85 1/52/86
f 24/34/87 23/33/88 6/8/89 5/7/90
f 1/14/91 2/13/92 26/40/93 25/39/94
s 1
f 19/20/23 4/18/22 18/19/95
s 2
f 3/23/28 16/24/96 22/25/29
