# This file uses centimeters as units for non-parametric coordinates.

mtllib Statue_Broken.mtl
g default
v -38.373890 -2.407135 36.770123
v -39.922318 -2.407135 -35.011013
v -32.693779 10.334656 36.851791
v -33.586777 10.334656 -33.112350
v -32.761391 27.552345 36.331245
v -33.961716 27.552345 -33.416397
v -34.613583 37.922546 35.211037
v -32.820770 37.922546 -29.184637
v -17.797150 70.143486 52.689392
v -38.333126 70.143471 -18.182158
v -17.877920 107.439285 51.543247
v -37.938614 107.439285 -17.806335
v -17.789995 165.746964 49.001915
v -36.773357 165.746948 -16.577227
v -24.120102 200.635483 33.651405
v -34.474148 200.635483 -15.617487
v -38.253204 236.556717 47.784595
v -44.898502 243.474121 -16.069540
v -46.837280 204.653748 35.303158
v -46.837280 204.653732 -16.487608
v -46.859539 244.036316 35.290363
v -54.218021 238.292664 -16.474812
v 0.000001 165.746948 -40.350780
v 0.000227 107.439285 -42.938873
v 0.000461 70.143471 -43.887764
v -0.000057 37.922546 -32.730373
v -0.000097 27.552353 -33.416397
v -0.000097 10.334656 -33.112358
v -0.000055 -2.407135 -35.011013
v -3.659981 -2.407135 52.681107
v -3.150599 10.334656 48.007023
v -4.368037 27.552353 49.351856
v -4.160316 37.922546 50.400463
v 0.000368 70.143478 49.840675
v 0.000263 107.439285 53.844826
v 0.000070 134.331055 51.181133
v -46.083206 243.450546 10.799378
v -46.859539 238.362244 11.052196
v -46.837280 204.653748 11.053007
v -35.823814 200.635483 8.656736
v -38.006363 165.746964 9.961354
v -39.246948 107.439285 10.253831
v -39.659184 70.143471 10.504420
v -36.372078 37.922546 -8.054384
v -33.961716 27.552345 1.599734
v -33.586777 10.334656 1.732207
v -39.922318 -2.407135 1.303819
v -0.000055 -2.407135 1.303819
v -38.993286 243.450546 35.049110
v -29.660475 200.635483 30.795902
v -31.058056 165.746964 33.964985
v -31.904310 107.439285 35.637539
v -32.142525 70.143478 36.445198
v -36.372078 37.922546 10.989101
v -31.541542 229.872955 46.669720
v -46.848473 231.766785 35.296745
v -0.000084 -2.407135 46.757698
v -0.000080 37.922546 44.754230
v -0.000091 27.552353 43.584415
v -0.000091 10.334656 42.261734
v 38.373661 -2.407135 36.770123
v 39.922150 -2.407135 -35.011013
v 32.693596 10.334656 36.851791
v 33.586662 10.334656 -33.112350
v 32.761169 27.552345 36.331245
v 33.961605 27.552345 -33.416397
v 34.613419 37.922546 35.211037
v 32.820595 37.922546 -29.184637
v 17.797024 70.143486 52.689392
v 38.333065 70.143471 -18.182158
v 17.877722 107.439285 51.543247
v 37.938381 107.439285 -17.806335
v 17.789894 128.114120 49.001915
v 36.773167 165.746948 -16.577227
v 3.659903 -2.407135 52.681107
v 3.150400 10.334656 48.007023
v 4.367836 27.552353 49.351856
v 4.160225 37.922546 50.400463
v 38.006332 146.481369 9.961354
v 39.246929 107.439285 10.253831
v 39.659061 70.143471 10.504420
v 36.371868 37.922546 -8.054384
v 33.961605 27.552345 1.599734
v 33.586662 10.334656 1.732207
v 39.922150 -2.407135 1.303819
v 31.057894 165.746964 33.964985
v 31.904140 107.439285 35.637539
v 32.142319 70.143478 36.445198
v 36.371868 37.922546 10.989101
v -49.996883 229.950104 11.052485
v -54.210064 224.206223 -16.479389
v -43.629559 223.366302 -15.882439
v -0.564938 179.973755 24.833771
v -6.958797 200.635483 23.602240
v -21.182682 223.824982 29.068762
v 20.007786 178.031250 14.224324
v 18.905272 185.294510 37.705948
v -22.871874 226.304810 7.976624
v -28.501583 200.635498 5.836215
v -1.397333 204.206375 2.043974
v 11.589391 183.998138 -8.738478
vt 0.223921 0.205363
vt 0.293286 0.222354
vt 0.290094 0.242690
vt 0.225801 0.234787
vt 0.077535 0.236799
vt 0.590904 0.263922
vt 0.598411 0.240509
vt 0.078546 0.208166
vt 0.221155 0.133742
vt 0.302619 0.128562
vt 0.151428 0.237113
vt 0.285920 0.274178
vt 0.223014 0.270242
vt 0.150938 0.271138
vt 0.081449 0.271903
vt 0.582977 0.295274
vt 0.286323 0.293637
vt 0.218970 0.291457
vt 0.169901 0.292128
vt 0.086735 0.293806
vt 0.579181 0.314465
vt 0.299115 0.355256
vt 0.264122 0.356436
vt 0.222045 0.355642
vt 0.113003 0.358779
vt 0.574025 0.378896
vt 0.263680 0.428954
vt 0.298241 0.428837
vt 0.222864 0.429710
vt 0.117363 0.433625
vt 0.565646 0.451420
vt 0.298885 0.482101
vt 0.413826 0.755631
vt 0.225992 0.546122
vt 0.753554 0.797683
vt 0.745401 0.673576
vt 0.498981 0.833129
vt 0.227028 0.619226
vt 0.213851 0.650053
vt 0.176098 0.639100
vt 0.241852 0.714517
vt 0.518873 0.967084
vt 0.163681 0.710607
vt 0.210524 0.719938
vt 0.590590 0.986670
vt 0.668477 0.997327
vt 0.115010 0.693501
vt 0.693157 0.872845
vt 0.176155 0.615554
vt 0.127206 0.635493
vt 0.177066 0.547391
vt 0.171885 0.431222
vt 0.169260 0.356709
vt 0.131045 0.293031
vt 0.214353 0.698470
vt 0.166863 0.691919
vt 0.485734 0.923177
vt 0.119327 0.670192
vt 0.676141 0.938404
vt 0.378878 0.207793
vt 0.376088 0.237136
vt 0.311574 0.243023
vt 0.309011 0.222598
vt 0.524197 0.244042
vt 0.524094 0.215383
vt 0.383882 0.136302
vt 0.450356 0.241891
vt 0.377779 0.272633
vt 0.314770 0.274616
vt 0.449776 0.275911
vt 0.519158 0.279025
vt 0.381164 0.293936
vt 0.313762 0.294040
vt 0.430169 0.296241
vt 0.513166 0.300763
vt 0.334032 0.357326
vt 0.376120 0.357828
vt 0.484753 0.364877
vt 0.332614 0.429343
vt 0.372975 0.431520
vt 0.477619 0.439658
vt 0.371029 0.601154
vt 0.495272 0.629395
vt 0.643169 0.605554
vt 0.558213 0.567142
vt 0.423556 0.435036
vt 0.428751 0.360749
vt 0.468942 0.298474
vt 0.301286 0.213660
vt 0.300824 0.243471
vt 0.300353 0.273832
vt 0.300063 0.292524
vt 0.502380 0.685625
vt 0.538472 0.886448
vt 0.517586 0.741551
vt 0.548853 0.801005
vt 0.560699 0.677481
vt 0.634424 0.699356
vt 0.632947 0.838252
vt 0.602831 0.768282
vt 0.595143 0.904580
vt 0.098678 0.662057
vt 0.123618 0.613822
vt 0.104230 0.709232
vt 0.365454 0.546666
vt 0.417024 0.512266
vt 0.464526 0.555066
vt 0.039682 0.556362
vt 0.332608 0.470106
vt 0.359400 0.657391
vt 0.254265 0.695326
vt 0.481223 0.950770
vt 0.124809 0.548742
vt 0.212555 0.733870
vt 0.160575 0.720395
vt 0.265251 0.544411
vt 0.239776 0.617804
vt 0.385884 0.063551
vt 0.452358 0.214055
vt 0.003450 0.230843
vt 0.303743 0.057451
vt 0.221453 0.060956
vt 0.150292 0.209226
vt 0.010203 0.254474
vt 0.017109 0.286020
vt 0.020263 0.305284
vt 0.023195 0.369621
vt 0.028839 0.442036
vt 0.549689 0.565851
vn -0.797245 0.410792 0.442324
vn -0.375662 0.251962 0.891848
vn -0.384509 0.102679 0.917393
vn -0.799286 0.178970 0.573683
vn -0.665362 0.188079 -0.722440
vn -0.000000 0.056600 -0.998397
vn 0.000000 0.147383 -0.989079
vn -0.703602 0.433723 -0.562875
vn 0.000000 -1.000000 0.000000
vn 0.000000 -1.000000 -0.000000
vn 0.000000 -1.000000 0.000000
vn 0.000000 -1.000000 0.000000
vn -0.899867 0.435904 0.015103
vn -0.797245 0.410792 0.442324
vn -0.799286 0.178970 0.573683
vn -0.980804 0.194351 0.015848
vn -0.799286 0.178970 0.573683
vn -0.384509 0.102679 0.917393
vn -0.403351 -0.034390 0.914399
vn -0.822432 -0.066783 0.564930
vn -0.980804 0.194351 0.015848
vn -0.799286 0.178970 0.573683
vn -0.822432 -0.066783 0.564930
vn -0.998350 -0.056506 0.010202
vn -0.673762 0.030456 -0.738321
vn -0.000000 0.078277 -0.996932
vn -0.000000 0.056600 -0.998397
vn -0.665362 0.188079 -0.722440
vn -0.822432 -0.066783 0.564930
vn -0.403351 -0.034390 0.914399
vn -0.296952 -0.133823 0.945469
vn -0.790979 -0.064669 0.608416
vn -0.998350 -0.056506 0.010202
vn -0.822432 -0.066783 0.564930
vn -0.790979 -0.064669 0.608416
vn -0.979273 -0.098901 0.176755
vn -0.662379 -0.020401 -0.748891
vn -0.000003 0.025956 -0.999663
vn -0.000000 0.078277 -0.996932
vn -0.673762 0.030456 -0.738321
vn -0.790979 -0.064669 0.608416
vn -0.296952 -0.133823 0.945469
vn 0.000001 -0.110937 0.993827
vn -0.465798 -0.060705 0.882807
vn -0.979273 -0.098901 0.176755
vn -0.790979 -0.064669 0.608416
vn -0.465798 -0.060705 0.882807
vn -0.918251 0.012992 0.395787
vn -0.803352 -0.019645 -0.595180
vn 0.000003 -0.003320 -0.999995
vn -0.000003 0.025956 -0.999663
vn -0.662379 -0.020401 -0.748891
vn -0.488896 0.022855 0.872042
vn -0.465798 -0.060705 0.882807
vn 0.000001 -0.110937 0.993827
vn 0.002710 0.016743 0.999856
vn -0.887525 0.021894 0.460238
vn -0.918251 0.012992 0.395787
vn -0.465798 -0.060705 0.882807
vn -0.488896 0.022855 0.872042
vn 0.000003 -0.003320 -0.999995
vn -0.803352 -0.019645 -0.595180
vn -0.802530 0.025677 -0.596059
vn -0.000000 0.032045 -0.999487
vn -0.488896 0.022855 0.872042
vn 0.002710 0.016743 0.999856
vn -0.026256 0.071141 0.997121
vn -0.666305 0.056911 0.743504
vn -0.887525 0.021894 0.460238
vn -0.488896 0.022855 0.872042
vn -0.666305 0.056911 0.743504
vn -0.888618 0.048773 0.456047
vn -0.861125 0.038603 -0.506926
vn -0.000001 0.039244 -0.999230
vn -0.000000 0.032045 -0.999487
vn -0.802530 0.025677 -0.596059
vn -0.888618 0.048773 0.456047
vn -0.666305 0.056911 0.743504
vn -0.541910 -0.121223 0.831648
vn -0.879984 -0.238328 0.410887
vn -0.879984 -0.238328 0.410887
vn -0.541910 -0.121223 0.831648
vn -0.302274 -0.524871 0.795702
vn -0.299726 -0.953754 0.022772
vn -0.750816 -0.096603 0.653409
vn 0.039604 0.998351 0.041550
vn -0.732690 0.669135 0.124194
vn -0.329431 0.866169 0.375800
vn -0.732690 0.669135 0.124194
vn -0.797322 0.588814 0.132573
vn -0.608774 0.623714 -0.490281
vn -0.396308 0.429181 -0.811630
vn -0.957687 -0.235366 -0.165646
vn -0.976072 -0.193721 0.098769
vn -0.299726 -0.953754 0.022772
vn -0.179464 -0.651141 -0.737433
vn -0.861125 0.038603 -0.506926
vn -0.993045 0.037528 0.111597
vn -0.976072 -0.193721 0.098769
vn -0.957687 -0.235366 -0.165646
vn -0.802530 0.025677 -0.596059
vn -0.993523 0.017713 0.112242
vn -0.993045 0.037528 0.111597
vn -0.861125 0.038603 -0.506926
vn -0.803352 -0.019645 -0.595180
vn -0.994882 -0.033909 0.095186
vn -0.993523 0.017713 0.112242
vn -0.802530 0.025677 -0.596059
vn -0.662379 -0.020401 -0.748891
vn -0.995278 -0.093844 -0.024797
vn -0.994882 -0.033909 0.095186
vn -0.803352 -0.019645 -0.595180
vn -0.673762 0.030456 -0.738321
vn -0.998350 -0.056506 0.010202
vn -0.995278 -0.093844 -0.024797
vn -0.662379 -0.020401 -0.748891
vn -0.665362 0.188079 -0.722440
vn -0.980804 0.194351 0.015848
vn -0.998350 -0.056506 0.010202
vn -0.673762 0.030456 -0.738321
vn -0.703602 0.433723 -0.562875
vn -0.899867 0.435904 0.015103
vn -0.980804 0.194351 0.015848
vn -0.665362 0.188079 -0.722440
vn 0.000000 -1.000000 0.000000
vn 0.000000 -1.000000 0.000000
vn 0.000000 -1.000000 -0.000000
vn 0.000000 -1.000000 0.000000
vn -0.732690 0.669135 0.124194
vn 0.039604 0.998351 0.041550
vn -0.797322 0.588814 0.132573
vn -0.976072 -0.193721 0.098769
vn -0.879984 -0.238328 0.410887
vn -0.299726 -0.953754 0.022772
vn -0.993045 0.037528 0.111597
vn -0.888618 0.048773 0.456047
vn -0.879984 -0.238328 0.410887
vn -0.976072 -0.193721 0.098769
vn -0.993523 0.017713 0.112242
vn -0.887525 0.021894 0.460238
vn -0.888618 0.048773 0.456047
vn -0.993045 0.037528 0.111597
vn -0.993523 0.017713 0.112242
vn -0.994882 -0.033909 0.095186
vn -0.918251 0.012992 0.395787
vn -0.887525 0.021894 0.460238
vn -0.995278 -0.093844 -0.024797
vn -0.979273 -0.098901 0.176755
vn -0.918251 0.012992 0.395787
vn -0.994882 -0.033909 0.095186
vn -0.998350 -0.056506 0.010202
vn -0.979273 -0.098901 0.176755
vn -0.995278 -0.093844 -0.024797
vn -0.986061 -0.144386 0.082683
vn -0.995938 -0.060246 0.066916
vn -0.998232 0.003501 0.059342
vn -0.994009 -0.046034 0.099128
vn -0.541910 -0.121223 0.831648
vn -0.348899 -0.262159 0.899746
vn -0.397065 -0.269032 0.877474
vn -0.302274 -0.524871 0.795702
vn -0.397065 -0.269032 0.877474
vn -0.348899 -0.262159 0.899746
vn -0.750816 -0.096603 0.653409
vn -0.329431 0.866169 0.375800
vn -0.994009 -0.046034 0.099128
vn -0.984029 -0.125724 0.126016
vn -0.968840 -0.227541 0.097850
vn -0.986061 -0.144386 0.082683
vn 0.059102 0.007883 -0.998221
vn 0.062143 0.012152 -0.997993
vn -0.957687 -0.235366 -0.165646
vn -0.179464 -0.651141 -0.737433
vn 0.797245 0.410791 0.442325
vn 0.799286 0.178970 0.573683
vn 0.384509 0.102679 0.917393
vn 0.375663 0.251963 0.891848
vn 0.665362 0.188078 -0.722441
vn 0.703602 0.433720 -0.562877
vn 0.000000 0.147383 -0.989079
vn -0.000000 0.056600 -0.998397
vn 0.000000 -1.000000 -0.000000
vn 0.000000 -1.000000 -0.000000
vn 0.000000 -1.000000 -0.000000
vn 0.000000 -1.000000 -0.000000
vn 0.899868 0.435901 0.015103
vn 0.980804 0.194349 0.015849
vn 0.799286 0.178970 0.573683
vn 0.797245 0.410791 0.442325
vn 0.799286 0.178970 0.573683
vn 0.822431 -0.066783 0.564931
vn 0.403352 -0.034391 0.914399
vn 0.384509 0.102679 0.917393
vn 0.980804 0.194349 0.015849
vn 0.998350 -0.056504 0.010203
vn 0.822431 -0.066783 0.564931
vn 0.799286 0.178970 0.573683
vn 0.673761 0.030457 -0.738321
vn 0.665362 0.188078 -0.722441
vn -0.000000 0.056600 -0.998397
vn -0.000000 0.078277 -0.996932
vn 0.822431 -0.066783 0.564931
vn 0.790982 -0.064668 0.608412
vn 0.296956 -0.133824 0.945467
vn 0.403352 -0.034391 0.914399
vn 0.998350 -0.056504 0.010203
vn 0.979273 -0.098902 0.176755
vn 0.790982 -0.064668 0.608412
vn 0.822431 -0.066783 0.564931
vn 0.662383 -0.020405 -0.748887
vn 0.673761 0.030457 -0.738321
vn -0.000000 0.078277 -0.996932
vn -0.000003 0.025956 -0.999663
vn 0.790982 -0.064668 0.608412
vn 0.465806 -0.060704 0.882802
vn 0.000001 -0.110937 0.993827
vn 0.296956 -0.133824 0.945467
vn 0.979273 -0.098902 0.176755
vn 0.918250 0.012991 0.395787
vn 0.465806 -0.060704 0.882802
vn 0.790982 -0.064668 0.608412
vn 0.803358 -0.019645 -0.595173
vn 0.662383 -0.020405 -0.748887
vn -0.000003 0.025956 -0.999663
vn 0.000003 -0.003320 -0.999995
vn 0.465806 -0.060704 0.882802
vn 0.488092 0.028797 0.872317
vn 0.002710 0.016743 0.999856
vn 0.000001 -0.110937 0.993827
vn 0.891573 0.025678 0.452148
vn 0.488092 0.028797 0.872317
vn 0.465806 -0.060704 0.882802
vn 0.918250 0.012991 0.395787
vn 0.000003 -0.003320 -0.999995
vn -0.000000 0.032045 -0.999487
vn 0.789124 0.026605 -0.613658
vn 0.803358 -0.019645 -0.595173
vn 0.488092 0.028797 0.872317
vn 0.588191 0.065325 0.806080
vn -0.026256 0.071141 0.997121
vn 0.002710 0.016743 0.999856
vn 0.891573 0.025678 0.452148
vn 0.924564 0.031464 0.379725
vn 0.588191 0.065325 0.806080
vn 0.488092 0.028797 0.872317
vn 0.711791 0.033664 -0.701584
vn 0.789124 0.026605 -0.613658
vn -0.000000 0.032045 -0.999487
vn -0.000001 0.039244 -0.999230
vn 0.789124 0.026605 -0.613658
vn 0.711791 0.033664 -0.701584
vn 0.993260 0.025852 0.112991
vn 0.993486 0.019596 0.112258
vn 0.789124 0.026605 -0.613658
vn 0.993486 0.019596 0.112258
vn 0.994882 -0.033911 0.095187
vn 0.803358 -0.019645 -0.595173
vn 0.662383 -0.020405 -0.748887
vn 0.803358 -0.019645 -0.595173
vn 0.994882 -0.033911 0.095187
vn 0.995278 -0.093844 -0.024796
vn 0.673761 0.030457 -0.738321
vn 0.662383 -0.020405 -0.748887
vn 0.995278 -0.093844 -0.024796
vn 0.998350 -0.056504 0.010203
vn 0.665362 0.188078 -0.722441
vn 0.673761 0.030457 -0.738321
vn 0.998350 -0.056504 0.010203
vn 0.980804 0.194349 0.015849
vn 0.703602 0.433720 -0.562877
vn 0.665362 0.188078 -0.722441
vn 0.980804 0.194349 0.015849
vn 0.899868 0.435901 0.015103
vn 0.000000 -1.000000 0.000000
vn 0.000000 -1.000000 -0.000000
vn 0.000000 -1.000000 -0.000000
vn 0.000000 -1.000000 0.000000
vn 0.993486 0.019596 0.112258
vn 0.993260 0.025852 0.112991
vn 0.924564 0.031464 0.379725
vn 0.891573 0.025678 0.452148
vn 0.994882 -0.033911 0.095187
vn 0.993486 0.019596 0.112258
vn 0.891573 0.025678 0.452148
vn 0.918250 0.012991 0.395787
vn 0.995278 -0.093844 -0.024796
vn 0.994882 -0.033911 0.095187
vn 0.918250 0.012991 0.395787
vn 0.979273 -0.098902 0.176755
vn 0.998350 -0.056504 0.010203
vn 0.995278 -0.093844 -0.024796
vn 0.979273 -0.098902 0.176755
vn 0.000000 -1.000000 -0.000000
vn 0.000000 -1.000000 0.000000
vn 0.000000 -1.000000 -0.000000
vn -0.847550 0.067033 0.526466
vn 0.000000 0.102568 0.994726
vn 0.000001 0.309593 0.950869
vn -0.852257 0.161954 0.497423
vn -0.822230 -0.037111 0.567944
vn 0.000000 -0.060359 0.998177
vn 0.000000 0.102568 0.994726
vn -0.847550 0.067033 0.526466
vn -0.800589 -0.084719 0.593195
vn 0.000004 -0.140286 0.990111
vn 0.000000 -0.060359 0.998177
vn -0.822230 -0.037111 0.567944
vn -0.000004 -0.155931 0.987768
vn 0.000004 -0.140286 0.990111
vn -0.800589 -0.084719 0.593195
vn -0.000004 -0.155931 0.987768
vn 0.800591 -0.084733 0.593190
vn 0.000004 -0.140286 0.990111
vn 0.800591 -0.084733 0.593190
vn 0.822230 -0.037113 0.567944
vn 0.000000 -0.060359 0.998177
vn 0.000004 -0.140286 0.990111
vn 0.822230 -0.037113 0.567944
vn 0.847550 0.067034 0.526465
vn 0.000000 0.102568 0.994726
vn 0.000000 -0.060359 0.998177
vn 0.847550 0.067034 0.526465
vn 0.852259 0.161957 0.497419
vn 0.000001 0.309593 0.950869
vn 0.000000 0.102568 0.994726
vn 0.000000 -1.000000 0.000000
vn 0.000000 -1.000000 -0.000000
vn 0.000000 -1.000000 0.000000
vn -0.994009 -0.046034 0.099128
vn -0.998232 0.003501 0.059342
vn -0.987931 0.149350 0.041080
vn -0.982808 0.142554 0.117335
vn -0.982808 0.142554 0.117335
vn -0.972410 0.135219 0.190093
vn -0.984029 -0.125724 0.126016
vn -0.994009 -0.046034 0.099128
vn -0.396308 0.429181 -0.811630
vn -0.608774 0.623714 -0.490281
vn 0.062143 0.012152 -0.997993
vn 0.059102 0.007883 -0.998221
vn 0.853009 0.458757 0.248832
vn 0.314206 0.715487 0.623981
vn 0.220269 0.181707 0.958366
vn 0.780846 0.430872 0.452360
vn 0.888160 0.446378 0.109169
vn 0.687891 0.725780 0.007079
vn 0.740852 0.622499 0.252258
vn 0.649623 0.220236 0.727658
vn 0.250209 0.347043 0.903857
vn 0.326544 0.844047 0.425386
vn 0.770268 0.484671 0.414465
vn 0.800285 0.596099 0.064886
vn 0.683165 0.722532 0.105983
vn 0.314206 0.715487 0.623981
vn 0.853009 0.458757 0.248832
vn -0.064664 0.747903 -0.660651
vn 0.283034 0.871888 -0.399630
vn 0.705122 0.708074 -0.037870
vn 0.724097 0.351131 -0.593625
vn 0.252401 0.875132 -0.412842
vn -0.041629 0.685644 -0.726746
vn 0.654290 0.275185 -0.704399
vn 0.725414 0.656295 -0.207488
vn 0.823288 0.437981 -0.361067
vn 0.842303 0.321566 -0.432576
vn 0.777751 0.534484 -0.330802
vn 0.649623 0.220236 0.727658
vn 0.770268 0.484671 0.414465
vn 0.888160 0.446378 0.109169
vn 0.780846 0.430872 0.452360
vn 0.842303 0.321566 -0.432576
vn 0.823288 0.437981 -0.361067
vn 0.724097 0.351131 -0.593625
vn 0.654290 0.275185 -0.704399
vn -0.041629 0.685644 -0.726746
vn 0.252401 0.875132 -0.412842
vn 0.283034 0.871888 -0.399630
vn -0.064664 0.747903 -0.660651
vn 0.314206 0.715487 0.623981
vn 0.683165 0.722532 0.105983
vn 0.326544 0.844047 0.425386
vn 0.250209 0.347043 0.903857
vn 0.220269 0.181707 0.958366
vn 0.314206 0.715487 0.623981
vn 0.250209 0.347043 0.903857
vn 0.193597 0.183036 0.963856
vn 0.687891 0.725780 0.007079
vn 0.888160 0.446378 0.109169
vn 0.823288 0.437981 -0.361067
vn 0.725414 0.656295 -0.207488
vn 0.724097 0.351131 -0.593625
vn 0.823288 0.437981 -0.361067
vn 0.888160 0.446378 0.109169
vn 0.770268 0.484671 0.414465
vn 0.770268 0.484671 0.414465
vn 0.326544 0.844047 0.425386
vn 0.252401 0.875132 -0.412842
vn 0.724097 0.351131 -0.593625
vn 0.283034 0.871888 -0.399630
vn 0.252401 0.875132 -0.412842
vn 0.326544 0.844047 0.425386
vn 0.683165 0.722532 0.105983
vn 0.705122 0.708074 -0.037870
vn 0.283034 0.871888 -0.399630
vn 0.683165 0.722532 0.105983
vn 0.800285 0.596099 0.064886
s off
g Broke_Statue_pCube1
usemtl Broke_Statue_pCube1SG
f 1/1/1 30/2/2 31/3/3 3/4/4
f 4/5/5 28/124/6 29/120/7 2/8/8
f 47/9/9 48/10/10 30/2/11 1/1/12
f 47/123/13 1/1/14 3/4/15 46/11/16
f 3/4/17 31/3/18 32/12/19 5/13/20
f 46/11/21 3/4/22 5/13/23 45/14/24
f 6/15/25 27/125/26 28/124/27 4/5/28
f 5/13/29 32/12/30 33/17/31 7/18/32
f 45/14/33 5/13/34 7/18/35 54/19/36
f 8/20/37 26/126/38 27/125/39 6/15/40
f 7/18/41 33/17/42 34/22/43 9/23/44
f 54/19/45 7/18/46 9/23/47 53/24/48
f 10/25/49 25/127/50 26/126/51 8/20/52
f 11/27/53 9/23/54 34/22/55 35/28/56
f 52/29/57 53/24/58 9/23/59 11/27/60
f 25/127/61 10/25/62 12/30/63 24/128/64
f 11/27/65 35/28/66 36/32/67 13/116/68
f 52/29/69 11/27/70 13/116/71 51/34/72
f 14/113/73 23/108/74 24/128/75 12/30/76
f 51/34/77 13/116/78 15/117/79 50/38/80
f 50/38/81 15/117/82 19/39/83 39/40/84
f 17/41/85 49/114/86 38/43/87 21/44/88
f 38/43/89 37/115/90 18/104/91 22/47/92
f 16/103/93 40/49/94 39/40/95 20/50/96
f 14/113/97 41/51/98 40/49/99 16/103/100
f 12/30/101 42/52/102 41/51/103 14/113/104
f 10/25/105 43/53/106 42/52/107 12/30/108
f 8/20/109 44/54/110 43/53/111 10/25/112
f 6/15/113 45/14/114 44/54/115 8/20/116
f 4/5/117 46/11/118 45/14/119 6/15/120
f 2/8/121 47/123/122 46/11/123 4/5/124
f 2/122/125 29/121/126 48/10/127 47/9/128
f 38/43/129 49/114/130 37/115/131
f 40/49/132 50/38/133 39/40/134
f 41/51/135 51/34/136 50/38/137 40/49/138
f 42/52/139 52/29/140 51/34/141 41/51/142
f 42/52/143 43/53/144 53/24/145 52/29/146
f 44/54/147 54/19/148 53/24/149 43/53/150
f 45/14/151 54/19/152 44/54/153
f 39/40/154 19/39/155 56/55/156 90/56/157
f 15/117/158 55/111/159 56/55/160 19/39/161
f 56/55/162 55/111/163 17/41/164 21/44/165
f 90/56/166 91/58/167 20/50/168 39/40/169
f 91/58/170 92/102/171 16/103/172 20/50/173
f 61/60/174 63/61/175 76/62/176 75/63/177
f 64/64/178 62/65/179 29/7/180 28/6/181
f 85/66/182 61/60/183 75/63/184 48/10/185
f 85/119/186 84/67/187 63/61/188 61/60/189
f 63/61/190 65/68/191 77/69/192 76/62/193
f 84/67/194 83/70/195 65/68/196 63/61/197
f 66/71/198 64/64/199 28/6/200 27/16/201
f 65/68/202 67/72/203 78/73/204 77/69/205
f 83/70/206 89/74/207 67/72/208 65/68/209
f 68/75/210 66/71/211 27/16/212 26/21/213
f 67/72/214 69/76/215 34/22/216 78/73/217
f 89/74/218 88/77/219 69/76/220 67/72/221
f 70/78/222 68/75/223 26/21/224 25/26/225
f 69/76/226 71/79/227 35/28/228 34/22/229
f 87/80/230 71/79/231 69/76/232 88/77/233
f 25/26/234 24/31/235 72/81/236 70/78/237
f 71/79/238 73/109/239 36/32/240 35/28/241
f 87/80/242 86/105/243 73/109/244 71/79/245
f 74/107/246 72/81/247 24/31/248 23/129/249
f 72/81/250 74/107/251 79/106/252 80/86/253
f 72/81/254 80/86/255 81/87/256 70/78/257
f 68/75/258 70/78/259 81/87/260 82/88/261
f 66/71/262 68/75/263 82/88/264 83/70/265
f 64/64/266 66/71/267 83/70/268 84/67/269
f 62/65/270 64/64/271 84/67/272 85/119/273
f 62/118/274 85/66/275 48/10/276 29/121/277
f 80/86/278 79/106/279 86/105/280 87/80/281
f 81/87/282 80/86/283 87/80/284 88/77/285
f 82/88/286 81/87/287 88/77/288 89/74/289
f 83/70/290 82/88/291 89/74/292
f 75/63/293 57/89/294 48/10/295
f 76/62/296 60/90/297 57/89/298 75/63/299
f 77/69/300 59/91/301 60/90/302 76/62/303
f 78/73/304 58/92/305 59/91/306 77/69/307
f 34/22/308 58/92/309 78/73/310
f 34/22/311 33/17/312 58/92/313
f 33/17/314 32/12/315 59/91/316 58/92/317
f 32/12/318 31/3/319 60/90/320 59/91/321
f 31/3/322 30/2/323 57/89/324 60/90/325
f 30/2/326 48/10/327 57/89/328
f 90/56/329 56/55/330 21/44/331 38/43/332
f 38/43/333 22/47/334 91/58/335 90/56/336
f 22/47/337 18/104/338 92/102/339 91/58/340
f 86/83/341 97/93/342 73/82/343
f 55/57/344 95/94/345 49/42/346 17/112/347
f 15/37/348 13/33/349 93/95/350 94/96/351
f 79/85/352 96/97/353 97/93/354 86/83/355
f 23/36/356 101/98/357 74/84/358
f 99/99/359 100/100/360 14/35/361 16/48/362
f 37/45/363 98/101/364 92/59/365 18/46/366
f 15/37/367 94/96/368 95/94/369 55/57/370
f 92/59/371 98/101/372 99/99/373 16/48/374
f 14/35/375 100/100/376 101/98/377 23/36/378
f 97/93/379 96/97/380 93/95/381 13/33/382
f 73/82/383 97/93/384 13/33/385 36/110/386
f 49/42/387 95/94/388 98/101/389 37/45/390
f 99/99/391 98/101/392 95/94/393 94/96/394
f 94/96/395 93/95/396 100/100/397 99/99/398
f 101/98/399 100/100/400 93/95/401 96/97/402
f 74/84/403 101/98/404 96/97/405 79/85/406
