#File written by LIBUNFOLD3D. Compilation :Oct 26 2011,14:21:15

#begin vertices
v -2.5 -0.5 0.5
v 2.5 -0.5 0.5
v -2.5 0.5 -0.5
v 2.5 0.5 -0.5
v -2.5 -0.5 -0.5
v 2.5 -0.5 -0.5
#end vertices

#begin 10 textures vertices 
vt 0.87817623336235651 0.16612986834494339 0
vt 0.12182376663764351 0.16612986834494275 0
vt 0.12182376663764392 0.014859375000000041 0
vt 0.87817623336235662 0.014859375000000782 0
vt 0.87817623336235617 0.53132914496517292 0
vt 0.12182376663764324 0.53132914496517236 0
vt 0.12182376663764324 0.38005865162022973 0
vt 0.87817623336235628 0.38005865162023034 0
vt 0.014859375000000008 0.27309425998258607 0
vt 0.98514062499999988 0.27309425998258702 0
#end 10 textures vertices 

#begin 18 normals 
vn 0 0 -1
vn 0 0 -1
vn 0 0 -1
vn 0 0 -1
vn 0 -1 0
vn 0 -1 0
vn 0 -1 0
vn 0 -1 0
vn 1 0 0
vn 1 0 0
vn 1 0 0
vn -1 0 0
vn -1 0 0
vn -1 0 0
vn 0 0.70710700000000004 0.70710700000000004
vn 0 0.70710700000000004 0.70710700000000004
vn 0 0.70710700000000004 0.70710700000000004
vn 0 0.70710700000000004 0.70710700000000004
#end 18 normals 

#begin 5 faces
s off
f 3/1/1 4/2/2 6/3/3 5/4/4 
f 5/5/5 6/6/6 2/7/7 1/8/8 
f 2/7/9 6/9/10 4/2/11 
f 5/10/12 1/8/13 3/1/14 
f 1/8/15 2/7/16 4/2/17 3/1/18 
#end 5 faces
#begin 1 properties
#U3D SYM 0 0 0 1 0 0 0.0001 0
#end 1 properties
