# This file uses centimeters as units for non-parametric coordinates.

v -1.500000 -0.500000 1.500000
v 1.500000 -0.500000 1.500000
v -1.500000 0.500000 1.500000
v 1.500000 0.500000 1.500000
v -1.500000 0.500000 -1.500000
v 1.500000 0.500000 -1.500000
v -1.500000 -0.500000 -1.500000
v 1.500000 -0.500000 -1.500000
vt 0.571786 0.849379
vt 0.377117 0.849114
vt 0.377205 0.784224
vt 0.571874 0.784489
vt 0.377471 0.589555
vt 0.572140 0.589820
vt 0.377559 0.524665
vt 0.572228 0.524931
vt 0.377825 0.329997
vt 0.572493 0.330262
vt 0.182448 0.848848
vt 0.182537 0.783959
vt 0.766455 0.849644
vt 0.766543 0.784755
vn 0.000000 0.000000 1.000000
vn 0.000000 0.000000 1.000000
vn 0.000000 0.000000 1.000000
vn 0.000000 0.000000 1.000000
vn 0.000000 1.000000 0.000000
vn 0.000000 1.000000 0.000000
vn 0.000000 1.000000 0.000000
vn 0.000000 1.000000 0.000000
vn 0.000000 0.000000 -1.000000
vn 0.000000 0.000000 -1.000000
vn 0.000000 0.000000 -1.000000
vn 0.000000 0.000000 -1.000000
vn 0.000000 -1.000000 0.000000
vn 0.000000 -1.000000 0.000000
vn 0.000000 -1.000000 0.000000
vn 0.000000 -1.000000 0.000000
vn 1.000000 0.000000 0.000000
vn 1.000000 0.000000 0.000000
vn 1.000000 0.000000 0.000000
vn 1.000000 0.000000 0.000000
vn -1.000000 0.000000 0.000000
vn -1.000000 0.000000 0.000000
vn -1.000000 0.000000 0.000000
vn -1.000000 0.000000 0.000000
s off
f 1/1/1 2/2/2 4/3/3 3/4/4
f 3/4/5 4/3/6 6/5/7 5/6/8
f 5/6/9 6/5/10 8/7/11 7/8/12
f 7/8/13 8/7/14 2/9/15 1/10/16
f 2/2/17 8/11/18 6/12/19 4/3/20
f 7/13/21 1/1/22 3/4/23 5/14/24
