# This file uses centimeters as units for non-parametric coordinates.

v -0.500000 -0.500000 0.500000
v 0.500000 -0.500000 0.500000
v -0.500000 0.500000 -0.500000
v 0.500000 0.500000 -0.500000
v -0.500000 -0.500000 -0.500000
v 0.500000 -0.500000 -0.500000
vt 0.332411 0.561141
vt 0.171658 0.561141
vt 0.171658 0.400388
vt 0.332411 0.400388
vt 0.332411 0.949234
vt 0.171658 0.949234
vt 0.171658 0.788480
vt 0.332411 0.788480
vt 0.057988 0.674811
vt 0.446081 0.674811
vn 0.000000 0.000000 -1.000000
vn 0.000000 0.000000 -1.000000
vn 0.000000 0.000000 -1.000000
vn 0.000000 0.000000 -1.000000
vn 0.000000 -1.000000 0.000000
vn 0.000000 -1.000000 0.000000
vn 0.000000 -1.000000 0.000000
vn 0.000000 -1.000000 0.000000
vn 1.000000 0.000000 0.000000
vn 1.000000 0.000000 0.000000
vn 1.000000 0.000000 0.000000
vn -1.000000 0.000000 0.000000
vn -1.000000 0.000000 0.000000
vn -1.000000 0.000000 0.000000
vn 0.000000 0.707107 0.707107
vn 0.000000 0.707107 0.707107
vn 0.000000 0.707107 0.707107
vn 0.000000 0.707107 0.707107
s off
f 3/1/1 4/2/2 6/3/3 5/4/4
f 5/5/5 6/6/6 2/7/7 1/8/8
f 2/7/9 6/9/10 4/2/11
f 5/10/12 1/8/13 3/1/14
f 1/8/15 2/7/16 4/2/17 3/1/18
