#File written by LIBUNFOLD3D. Compilation :Oct 26 2011,14:21:15

#begin vertices
v -2.5 -0.5 0.5
v 2.5 -0.5 0.5
v -2.5 0.25 0.25
v 2.5 0.25 0.25
v -2.5 0.5 -0.5
v 2.5 0.5 -0.5
v -2.5 -0.5 -0.5
v 2.5 -0.5 -0.5
v -2.5 0.42521999999999999 -0.050220000000000001
v 2.5 0.42521999999999999 -0.050220000000000001
v -2.5 -0.050220000000000001 0.42521999999999999
v 2.5 -0.050220000000000001 0.42521999999999999
v -2.5 0.25 -0.5
v 2.5 0.25 -0.5
v 2.5 -0.5 0.25
v -2.5 -0.5 0.25
v -2.5 -0.25 0.5
v 2.5 -0.25 0.5
v 2.5 -0.25 0.25
v 2.5 -0.25 -0.5
v -2.5 -0.25 -0.5
v -2.5 -0.25 0.25
v -2.5 -0.5 -0.25
v 2.5 -0.5 -0.25
v 2.5 -0.25 -0.25
v 2.5 0.25 -0.25
v 2.5 0.5 -0.25
v -2.5 0.5 -0.25
v -2.5 0.25 -0.25
v -2.5 -0.25 -0.25
#end vertices

#begin 48 textures vertices 
vt 0.1504169240037217 0.17594134006164452 0
vt 0.84989253161653766 0.1758954749208845 0
vt 0.84986689452872011 0.20568808148073572 0
vt 0.15045664029259062 0.20574120641761195 0
vt 0.15059683122796128 0.3454337364876548 0
vt 0.15053570061373311 0.27558846731561831 0
vt 0.84982083487833759 0.27552144339554524 0
vt 0.84979270493487413 0.34535679703632449 0
vt 0.15067288612453006 0.48511914198985939 0
vt 0.15064227034375613 0.41527726256568548 0
vt 0.84978026648975791 0.41519389377110938 0
vt 0.84978265137965958 0.48503263715975098 0
vt 0.9411879971032886 0.082603051342108144 0
vt 0.91745572705497935 0.14970874997569181 0
vt 0.84994267270395329 0.12734765981050758 0
vt 0.87655955747388836 0.060394693289584182 0
vt 0.083236204592965907 0.14957512951307603 0
vt 0.058994708690154239 0.082862293994041575 0
vt 0.12376020252282537 0.060052907665658024 0
vt 0.15034401206512418 0.12737983612538029 0
vt 0.15489957742341556 0.049303413228259527 0
vt 0.84525132138643633 0.049818348076781253 0
vt 0.84579768126090704 0.079382521913020934 0
vt 0.15446975860891207 0.078926566630187434 0
vt 0.15049852015511542 0.24066509788384124 0
vt 0.84984151500152771 0.24060450142091427 0
vt 0.88254990448395387 0.16379001031073129 0
vt 0.90584473912063512 0.18271185959045858 0
vt 0.11811414683567399 0.16363822943880599 0
vt 0.095016993106296091 0.1825648577778328 0
vt 0.8497891437085463 0.51995259759299639 0
vt 0.15068289413098335 0.52003949296302177 0
vt 0.15163463425450427 0.014859375000000008 0
vt 0.84886379866971651 0.015055771958723863 0
vt 0.88534454401893559 0.02631592660072726 0
vt 0.95196343604091782 0.049250619624908461 0
vt 0.84978458566041981 0.38027513433597954 0
vt 0.15062145083775527 0.38035571059440748 0
vt 0.047925069909719405 0.049542955009633419 0
vt 0.11460021813009678 0.025614425437921352 0
vt 0.97409601008524083 0.093820871621757701 0
vt 0.98514062499999977 0.060421133873048337 0
vt 0.95059667473011722 0.16097566990371182 0
vt 0.93899076740060838 0.19406345125613544 0
vt 0.061996074236291554 0.19412800494211382 0
vt 0.0502189976562811 0.16110938621987569 0
vt 0.02613923563838089 0.094359798025551236 0
vt 0.014859375000000008 0.061085070936428711 0
#end 48 textures vertices 

#begin 112 normals 
vn 0 0.89442699999999997 0.447214
vn 0 0.89442699999999997 0.447214
vn 0 0.98645899999999997 0.16400600000000001
vn 0 0.98645899999999997 0.16400600000000001
vn 0 0 -1
vn 0 0 -1
vn 0 0 -1
vn 0 0 -1
vn 0 -1 0
vn 0 -1 0
vn 0 -1 0
vn 0 -1 0
vn 1 0 0
vn 1 0 0
vn 1 0 0
vn 1 0 0
vn -1 0 0
vn -1 0 0
vn -1 0 0
vn -1 0 0
vn 0 0.16400699999999999 0.98645899999999997
vn 0 0.16400699999999999 0.98645899999999997
vn 0 0.447214 0.89442699999999997
vn 0 0.447214 0.89442699999999997
vn 0 0 -1
vn 0 0 -1
vn 0 0 -1
vn 0 0 -1
vn 1 0 0
vn 1 0 0
vn 1 0 0
vn 1 0 0
vn -1 0 0
vn -1 0 0
vn -1 0 0
vn -1 0 0
vn 0 -1 0
vn 0 -1 0
vn 0 -1 0
vn 0 -1 0
vn 0 0 1
vn 0 0 1
vn 0 0.16400699999999999 0.98645899999999997
vn 0 0.16400699999999999 0.98645899999999997
vn 1 0 0
vn 1 0 0
vn 1 0 0
vn 1 0 0
vn 1 0 0
vn 1 0 0
vn 1 0 0
vn 1 0 0
vn 0 0 -1
vn 0 0 -1
vn 0 0 -1
vn 0 0 -1
vn -1 0 0
vn -1 0 0
vn -1 0 0
vn -1 0 0
vn -1 0 0
vn -1 0 0
vn -1 0 0
vn -1 0 0
vn 0 -1 0
vn 0 -1 0
vn 0 -1 0
vn 0 -1 0
vn 1 0 0
vn 1 0 0
vn 1 0 0
vn 1 0 0
vn 1 0 0
vn 1 0 0
vn 1 0 0
vn 1 0 0
vn 1 0 0
vn 1 0 0
vn 1 0 0
vn 1 0 0
vn 0 0.98645899999999997 0.16400600000000001
vn 0 0.98645899999999997 0.16400600000000001
vn 0 1 0
vn 0 1 0
vn -1 0 0
vn -1 0 0
vn -1 0 0
vn -1 0 0
vn -1 0 0
vn -1 0 0
vn -1 0 0
vn -1 0 0
vn -1 0 0
vn -1 0 0
vn -1 0 0
vn -1 0 0
vn 0 0.447214 0.89442699999999997
vn 0 0.447214 0.89442699999999997
vn 0 0.70710700000000004 0.70710700000000004
vn 0 0.70710700000000004 0.70710700000000004
vn 1 0 0
vn 1 0 0
vn 1 0 0
vn 1 0 0
vn -1 0 0
vn -1 0 0
vn -1 0 0
vn -1 0 0
vn 0 0.70710700000000004 0.70710700000000004
vn 0 0.70710700000000004 0.70710700000000004
vn 0 0.89442699999999997 0.447214
vn 0 0.89442699999999997 0.447214
#end 112 normals 

#begin 28 faces
s off
f 9/1/1 10/2/2 27/3/3 28/4/4 
f 21/5/5 13/6/6 14/7/7 20/8/8 
f 16/9/9 23/10/10 24/11/11 15/12/12 
f 25/13/13 26/14/14 4/15/15 19/16/16 
f 29/17/17 30/18/18 22/19/19 3/20/20 
f 17/21/21 18/22/22 12/23/23 11/24/24 
f 14/7/25 13/6/26 5/25/27 6/26/28 
f 10/27/29 4/15/30 26/14/31 27/28/32 
f 29/17/33 3/20/34 9/29/35 28/30/36 
f 16/9/37 15/12/38 2/31/39 1/32/40 
f 1/33/41 2/34/42 18/22/43 17/21/44 
f 15/35/45 19/16/46 18/22/47 2/34/48 
f 24/36/49 25/13/50 19/16/51 15/35/52 
f 21/5/53 20/8/54 8/37/55 7/38/56 
f 22/19/57 30/18/58 23/39/59 16/40/60 
f 22/19/61 16/40/62 1/33/63 17/21/64 
f 7/38/65 8/37/66 24/11/67 23/10/68 
f 20/41/69 25/13/70 24/36/71 8/42/72 
f 20/41/73 14/43/74 26/14/75 25/13/76 
f 26/14/77 14/43/78 6/44/79 27/28/80 
f 28/4/81 27/3/82 6/26/83 5/25/84 
f 5/45/85 13/46/86 29/17/87 28/30/88 
f 30/18/89 29/17/90 13/46/91 21/47/92 
f 7/48/93 23/39/94 30/18/95 21/47/96 
f 11/24/97 12/23/98 4/15/99 3/20/100 
f 19/16/101 4/15/102 12/23/103 18/22/104 
f 11/24/105 3/20/106 22/19/107 17/21/108 
f 3/20/109 4/15/110 10/2/111 9/1/112 
#end 28 faces
#begin 1 properties
#U3D SYM 0 0 0 1 0 0 0.0001 0
#end 1 properties
