# This file uses centimeters as units for non-parametric coordinates.

v 0.000000 0.000000 -5.000000
v 0.000000 0.000000 0.000000
v 0.750000 2.250000 -5.000000
v 0.750000 2.250000 0.000000
v 3.000000 3.000000 -5.000000
v 3.000000 3.000000 0.000000
v 3.000000 0.000000 -5.000000
v 3.000000 0.000000 0.000000
v 1.650662 2.775661 -5.000000
v 1.650662 2.775661 0.000000
v 0.224339 1.349338 -5.000000
v 0.224339 1.349338 0.000000
v 3.000000 2.250000 -5.000000
v 3.000000 2.250000 0.000000
v 0.750000 0.000000 0.000000
v 0.750000 0.000000 -5.000000
v 0.000000 0.750000 -5.000000
v 0.000000 0.750000 0.000000
v 0.750000 0.750000 0.000000
v 3.000000 0.750000 0.000000
v 3.000000 0.750000 -5.000000
v 0.750000 0.750000 -5.000000
v 2.250000 0.000000 -5.000000
v 2.250000 0.000000 0.000000
v 2.250000 0.750000 0.000000
v 2.250000 2.250000 0.000000
v 2.250000 3.000000 0.000000
v 2.250000 3.000000 -5.000000
v 2.250000 2.250000 -5.000000
v 2.250000 0.750000 -5.000000
vt 0.336612 0.370288
vt 0.663750 0.369762
vt 0.663539 0.411295
vt 0.336980 0.411839
vt 0.338023 0.606604
vt 0.337608 0.509225
vt 0.663276 0.508651
vt 0.663227 0.606015
vt 0.338564 0.801353
vt 0.338330 0.703980
vt 0.663286 0.703382
vt 0.663418 0.800752
vt 0.791444 0.240716
vt 0.758123 0.333944
vt 0.664274 0.302089
vt 0.701323 0.209670
vt 0.242332 0.333565
vt 0.208670 0.240621
vt 0.299061 0.208917
vt 0.335834 0.302571
vt 0.342663 0.194005
vt 0.657433 0.195262
vt 0.658100 0.235999
vt 0.342112 0.234930
vt 0.337327 0.460533
vt 0.663374 0.459972
vt 0.709419 0.353289
vt 0.741757 0.379867
vt 0.290918 0.353175
vt 0.258713 0.379564
vt 0.663504 0.849438
vt 0.338661 0.850039
vt 0.337623 0.146730
vt 0.663241 0.146793
vt 0.713770 0.162243
vt 0.806614 0.194297
vt 0.663246 0.654698
vt 0.338188 0.655292
vt 0.193288 0.194162
vt 0.286258 0.161013
vt 0.837277 0.256505
vt 0.852830 0.210012
vt 0.804254 0.349856
vt 0.787895 0.395901
vt 0.212666 0.395655
vt 0.196291 0.349616
vt 0.162841 0.256600
vt 0.147170 0.210192
vn -0.447214 0.894427 0.000000
vn -0.447214 0.894427 0.000000
vn -0.164006 0.986459 0.000000
vn -0.164006 0.986459 0.000000
vn 1.000000 0.000000 -0.000000
vn 1.000000 0.000000 -0.000000
vn 1.000000 0.000000 -0.000000
vn 1.000000 0.000000 -0.000000
vn 0.000000 -1.000000 0.000000
vn 0.000000 -1.000000 0.000000
vn 0.000000 -1.000000 0.000000
vn 0.000000 -1.000000 0.000000
vn 0.000000 0.000000 1.000000
vn 0.000000 0.000000 1.000000
vn 0.000000 0.000000 1.000000
vn 0.000000 0.000000 1.000000
vn -0.000000 0.000000 -1.000000
vn -0.000000 0.000000 -1.000000
vn -0.000000 0.000000 -1.000000
vn -0.000000 0.000000 -1.000000
vn -0.986459 0.164007 0.000000
vn -0.986459 0.164007 0.000000
vn -0.894427 0.447214 0.000000
vn -0.894427 0.447214 0.000000
vn 1.000000 0.000000 -0.000000
vn 1.000000 0.000000 -0.000000
vn 1.000000 0.000000 -0.000000
vn 1.000000 0.000000 -0.000000
vn 0.000000 0.000000 1.000000
vn 0.000000 0.000000 1.000000
vn 0.000000 0.000000 1.000000
vn 0.000000 0.000000 1.000000
vn -0.000000 0.000000 -1.000000
vn -0.000000 0.000000 -1.000000
vn -0.000000 0.000000 -1.000000
vn -0.000000 0.000000 -1.000000
vn 0.000000 -1.000000 0.000000
vn 0.000000 -1.000000 0.000000
vn 0.000000 -1.000000 0.000000
vn 0.000000 -1.000000 0.000000
vn -1.000000 0.000000 0.000000
vn -1.000000 0.000000 0.000000
vn -0.986459 0.164007 0.000000
vn -0.986459 0.164007 0.000000
vn 0.000000 0.000000 1.000000
vn 0.000000 0.000000 1.000000
vn 0.000000 0.000000 1.000000
vn 0.000000 0.000000 1.000000
vn 0.000000 0.000000 1.000000
vn 0.000000 0.000000 1.000000
vn 0.000000 0.000000 1.000000
vn 0.000000 0.000000 1.000000
vn 1.000000 0.000000 -0.000000
vn 1.000000 0.000000 -0.000000
vn 1.000000 0.000000 -0.000000
vn 1.000000 0.000000 -0.000000
vn -0.000000 0.000000 -1.000000
vn -0.000000 0.000000 -1.000000
vn -0.000000 0.000000 -1.000000
vn -0.000000 0.000000 -1.000000
vn -0.000000 0.000000 -1.000000
vn -0.000000 0.000000 -1.000000
vn -0.000000 0.000000 -1.000000
vn -0.000000 0.000000 -1.000000
vn 0.000000 -1.000000 0.000000
vn 0.000000 -1.000000 0.000000
vn 0.000000 -1.000000 0.000000
vn 0.000000 -1.000000 0.000000
vn 0.000000 0.000000 1.000000
vn 0.000000 0.000000 1.000000
vn 0.000000 0.000000 1.000000
vn 0.000000 0.000000 1.000000
vn 0.000000 0.000000 1.000000
vn 0.000000 0.000000 1.000000
vn 0.000000 0.000000 1.000000
vn 0.000000 0.000000 1.000000
vn 0.000000 0.000000 1.000000
vn 0.000000 0.000000 1.000000
vn 0.000000 0.000000 1.000000
vn 0.000000 0.000000 1.000000
vn -0.164006 0.986459 0.000000
vn -0.164006 0.986459 0.000000
vn 0.000000 1.000000 0.000000
vn 0.000000 1.000000 0.000000
vn -0.000000 0.000000 -1.000000
vn -0.000000 0.000000 -1.000000
vn -0.000000 0.000000 -1.000000
vn -0.000000 0.000000 -1.000000
vn -0.000000 0.000000 -1.000000
vn -0.000000 0.000000 -1.000000
vn -0.000000 0.000000 -1.000000
vn -0.000000 0.000000 -1.000000
vn -0.000000 0.000000 -1.000000
vn -0.000000 0.000000 -1.000000
vn -0.000000 0.000000 -1.000000
vn -0.000000 0.000000 -1.000000
vn -0.894427 0.447214 0.000000
vn -0.894427 0.447214 0.000000
vn -0.707107 0.707107 0.000000
vn -0.707107 0.707107 0.000000
vn 0.000000 0.000000 1.000000
vn 0.000000 0.000000 1.000000
vn 0.000000 0.000000 1.000000
vn 0.000000 0.000000 1.000000
vn -0.000000 0.000000 -1.000000
vn -0.000000 0.000000 -1.000000
vn -0.000000 0.000000 -1.000000
vn -0.000000 0.000000 -1.000000
vn -0.707107 0.707107 0.000000
vn -0.707107 0.707107 0.000000
vn -0.447214 0.894427 0.000000
vn -0.447214 0.894427 0.000000
s off
f 9/1/1 10/2/2 27/3/3 28/4/4
f 21/5/5 13/6/6 14/7/7 20/8/8
f 16/9/9 23/10/10 24/11/11 15/12/12
f 25/13/13 26/14/14 4/15/15 19/16/16
f 29/17/17 30/18/18 22/19/19 3/20/20
f 17/21/21 18/22/22 12/23/23 11/24/24
f 14/7/25 13/6/26 5/25/27 6/26/28
f 10/27/29 4/15/30 26/14/31 27/28/32
f 29/17/33 3/20/34 9/29/35 28/30/36
f 16/9/37 15/12/38 2/31/39 1/32/40
f 1/33/41 2/34/42 18/22/43 17/21/44
f 15/35/45 19/16/46 18/22/47 2/34/48
f 24/36/49 25/13/50 19/16/51 15/35/52
f 21/5/53 20/8/54 8/37/55 7/38/56
f 22/19/57 30/18/58 23/39/59 16/40/60
f 22/19/61 16/40/62 1/33/63 17/21/64
f 7/38/65 8/37/66 24/11/67 23/10/68
f 20/41/69 25/13/70 24/36/71 8/42/72
f 20/41/73 14/43/74 26/14/75 25/13/76
f 26/14/77 14/43/78 6/44/79 27/28/80
f 28/4/81 27/3/82 6/26/83 5/25/84
f 5/45/85 13/46/86 29/17/87 28/30/88
f 30/18/89 29/17/90 13/46/91 21/47/92
f 7/48/93 23/39/94 30/18/95 21/47/96
f 11/24/97 12/23/98 4/15/99 3/20/100
f 19/16/101 4/15/102 12/23/103 18/22/104
f 11/24/105 3/20/106 22/19/107 17/21/108
f 3/20/109 4/15/110 10/2/111 9/1/112
