# This file uses centimeters as units for non-parametric coordinates.

v 0.000000 0.000000 -5.000000
v 0.000000 0.000000 0.000000
v 3.000000 3.000000 -5.000000
v 3.000000 3.000000 0.000000
v 3.000000 0.000000 -5.000000
v 3.000000 0.000000 0.000000
vt 0.624871 0.353853
vt 0.280400 0.353853
vt 0.280400 0.147170
vt 0.624871 0.147170
vt 0.624871 0.852830
vt 0.280400 0.852830
vt 0.280400 0.646147
vt 0.624871 0.646147
vt 0.134253 0.500000
vt 0.771018 0.500000
vn 1.000000 0.000000 -0.000000
vn 1.000000 0.000000 -0.000000
vn 1.000000 0.000000 -0.000000
vn 1.000000 0.000000 -0.000000
vn 0.000000 -1.000000 0.000000
vn 0.000000 -1.000000 0.000000
vn 0.000000 -1.000000 0.000000
vn 0.000000 -1.000000 0.000000
vn 0.000000 0.000000 1.000000
vn 0.000000 0.000000 1.000000
vn 0.000000 0.000000 1.000000
vn -0.000000 0.000000 -1.000000
vn -0.000000 0.000000 -1.000000
vn -0.000000 0.000000 -1.000000
vn -0.707107 0.707107 0.000000
vn -0.707107 0.707107 0.000000
vn -0.707107 0.707107 0.000000
vn -0.707107 0.707107 0.000000
s off
f 3/1/1 4/2/2 6/3/3 5/4/4
f 5/5/5 6/6/6 2/7/7 1/8/8
f 2/7/9 6/9/10 4/2/11
f 5/10/12 1/8/13 3/1/14
f 1/8/15 2/7/16 4/2/17 3/1/18
