# This file uses centimeters as units for non-parametric coordinates.

v 10.606601 0.000000 -10.606601
v 0.000000 0.000000 -14.999999
v -10.606601 0.000000 -10.606601
v -14.999999 0.000000 0.000000
v -10.606601 0.000000 10.606601
v 0.000000 0.000000 14.999999
v 10.606602 0.000000 10.606602
v 15.000000 0.000000 0.000000
v 3.126955 195.069870 -5.405006
v 0.000000 200.449951 -7.268502
v -3.126953 195.069870 -5.405006
v -4.422178 185.153214 -2.278051
v -3.126953 174.205765 0.848902
v 0.000001 169.713699 2.144130
v 3.126955 174.205765 0.848904
v 4.422180 185.153214 -2.278051
v 0.000000 0.000000 0.000000
v 0.000001 185.378784 -2.278051
v 9.083470 101.269531 -9.083470
v 12.845971 100.111214 0.000000
v 9.083472 100.000000 9.083472
v 0.000000 100.000000 12.845969
v -9.083470 100.000000 9.083470
v -12.845969 100.111214 0.000000
v -9.083470 101.269531 -9.083470
v 0.000000 102.157272 -12.845969
vt 0.744565 0.691428
vt 0.745303 0.754602
vt 0.183002 0.756631
vt 0.187254 0.702472
vt 0.745021 0.817780
vt 0.187645 0.810758
vt 0.743711 0.880944
vt 0.192895 0.864985
vt 0.741362 0.944079
vt 0.191494 0.919075
vt 0.737972 1.007166
vt 0.188591 0.973103
vt 0.736149 0.502098
vt 0.739994 0.565159
vt 0.190321 0.594130
vt 0.187028 0.540125
vt 0.742799 0.628275
vt 0.192112 0.648209
vt 0.816726 0.206954
vt 0.792726 0.148512
vt 0.875272 0.148763
vt 0.875021 0.231309
vt 0.933463 0.207309
vt 0.957818 0.149014
vt 0.933819 0.090572
vt 0.875523 0.066217
vt 0.817081 0.090217
vt 0.882712 0.470437
vt 0.970076 0.470121
vt 0.938809 0.487448
vt 0.881610 0.494778
vt 0.818928 0.487876
vt 0.793140 0.470760
vt 0.818804 0.453458
vt 0.881435 0.446104
vt 0.938684 0.453021
vt 0.181644 0.380442
vt 0.183711 0.326001
vt 0.700145 0.290873
vt 0.647406 0.314190
vt 0.189241 0.434015
vt 0.591180 0.342737
vt 0.202837 0.486384
vt 0.572220 0.367202
vt 0.188071 0.109559
vt 0.201289 0.057093
vt 0.571522 0.173607
vt 0.590658 0.197934
vt 0.180860 0.163186
vt 0.647088 0.226075
vt 0.183320 0.217610
vt 0.699994 0.249011
vt 0.187268 0.271792
vt 0.729048 0.269837
vn 0.706133 0.021281 -0.707759
vn 0.000000 0.021180 -0.999776
vn 0.000000 0.037579 -0.999294
vn 0.712956 0.040140 -0.700059
vn 0.000000 0.021180 -0.999776
vn -0.706133 0.021281 -0.707759
vn -0.712956 0.040140 -0.700059
vn 0.000000 0.037579 -0.999294
vn -0.706133 0.021281 -0.707759
vn -0.999770 0.021451 -0.000719
vn -0.998793 0.047195 0.013607
vn -0.712956 0.040140 -0.700059
vn -0.999770 0.021451 -0.000719
vn -0.706988 0.021529 0.706898
vn -0.693627 0.055902 0.718162
vn -0.998793 0.047195 0.013607
vn -0.706988 0.021529 0.706898
vn 0.000000 0.021535 0.999768
vn 0.000000 0.059252 0.998243
vn -0.693627 0.055902 0.718162
vn 0.000000 0.021535 0.999768
vn 0.706988 0.021529 0.706898
vn 0.693627 0.055902 0.718162
vn 0.000000 0.059252 0.998243
vn 0.706988 0.021529 0.706898
vn 0.999770 0.021451 -0.000719
vn 0.998793 0.047195 0.013607
vn 0.693627 0.055902 0.718162
vn 0.999770 0.021451 -0.000719
vn 0.706133 0.021281 -0.707759
vn 0.712956 0.040140 -0.700059
vn 0.998793 0.047195 0.013607
vn 0.000000 -1.000000 0.000000
vn 0.000000 -1.000000 0.000000
vn 0.000000 -1.000000 0.000000
vn 0.000000 -1.000000 0.000000
vn 0.000000 -1.000000 0.000000
vn 0.000000 -1.000000 0.000000
vn 0.000000 -1.000000 0.000000
vn 0.000000 -1.000000 0.000000
vn 0.000000 -1.000000 0.000000
vn 0.000000 -1.000000 0.000000
vn 0.000000 -1.000000 0.000000
vn 0.000000 -1.000000 0.000000
vn 0.000000 -1.000000 0.000000
vn 0.000000 -1.000000 0.000000
vn 0.000000 -1.000000 0.000000
vn 0.000000 -1.000000 0.000000
vn 0.000000 0.290595 0.956846
vn 0.000000 0.308699 0.951160
vn 0.005566 0.308695 0.951145
vn -0.003358 0.289355 0.957216
vn 0.000000 0.290595 0.956846
vn -0.003358 0.289355 0.957216
vn -0.011134 0.272383 0.962125
vn 0.000000 0.272399 0.962184
vn 0.000000 0.290595 0.956846
vn 0.000000 0.272399 0.962184
vn 0.011134 0.272383 0.962125
vn 0.003358 0.289355 0.957216
vn 0.000000 0.290595 0.956846
vn 0.003358 0.289355 0.957216
vn -0.005566 0.308695 0.951145
vn 0.000000 0.308699 0.951160
vn 0.998793 0.047195 0.013607
vn 0.712956 0.040140 -0.700059
vn 0.511077 0.060939 -0.857372
vn 0.963624 0.083569 -0.253860
vn 0.693627 0.055902 0.718162
vn 0.998793 0.047195 0.013607
vn 0.963624 0.083569 -0.253860
vn 0.812829 0.119402 0.570133
vn 0.000000 0.059252 0.998243
vn 0.693627 0.055902 0.718162
vn 0.812829 0.119402 0.570133
vn 0.000000 0.144942 0.989440
vn -0.693627 0.055902 0.718162
vn 0.000000 0.059252 0.998243
vn 0.000000 0.144942 0.989440
vn -0.812829 0.119402 0.570133
vn -0.998793 0.047195 0.013607
vn -0.693627 0.055902 0.718162
vn -0.812829 0.119402 0.570133
vn -0.963624 0.083569 -0.253860
vn -0.712956 0.040140 -0.700059
vn -0.998793 0.047195 0.013607
vn -0.963624 0.083569 -0.253860
vn -0.511077 0.060939 -0.857372
vn 0.000000 0.037579 -0.999294
vn -0.712956 0.040140 -0.700059
vn -0.511077 0.060939 -0.857372
vn 0.000000 0.063355 -0.997991
vn 0.712956 0.040140 -0.700059
vn 0.000000 0.037579 -0.999294
vn 0.000000 0.063355 -0.997991
vn 0.511077 0.060939 -0.857372
s off
f 1/1/1 2/2/2 26/3/3 19/4/4
f 2/2/5 3/5/6 25/6/7 26/3/8
f 3/5/9 4/7/10 24/8/11 25/6/12
f 4/7/13 5/9/14 23/10/15 24/8/16
f 5/9/17 6/11/18 22/12/19 23/10/20
f 6/13/21 7/14/22 21/15/23 22/16/24
f 7/14/25 8/17/26 20/18/27 21/15/28
f 8/17/29 1/1/30 19/4/31 20/18/32
f 3/19/33 2/20/34 17/21/35 4/22/36
f 5/23/37 4/22/38 17/21/39 6/24/40
f 7/25/41 6/24/42 17/21/43 8/26/44
f 1/27/45 8/26/46 17/21/47 2/20/48
f 18/28/49 10/29/50 11/30/51 12/31/52
f 18/28/53 12/31/54 13/32/55 14/33/56
f 18/28/57 14/33/58 15/34/59 16/35/60
f 18/28/61 16/35/62 9/36/63 10/29/64
f 20/37/65 19/38/66 9/39/67 16/40/68
f 21/41/69 20/37/70 16/40/71 15/42/72
f 22/43/73 21/41/74 15/42/75 14/44/76
f 23/45/77 22/46/78 14/47/79 13/48/80
f 24/49/81 23/45/82 13/48/83 12/50/84
f 25/51/85 24/49/86 12/50/87 11/52/88
f 26/53/89 25/51/90 11/52/91 10/54/92
f 19/38/93 26/53/94 10/54/95 9/39/96
