# This file uses centimeters as units for non-parametric coordinates.

v -1.060665 0.280680 -1.060665
v -1.500000 0.000000 0.000000
v -1.060665 0.280680 1.060665
v 0.000000 0.681660 1.500000
v 1.060665 0.280680 1.060665
v 1.500000 0.000000 0.000000
v 1.060665 0.280680 -1.060665
v 0.000000 0.681660 -1.500000
v -1.060665 22.067610 -1.060665
v -1.500000 22.500000 0.000000
v -1.060665 22.067610 1.060665
v 0.000000 21.758326 1.500000
v 1.060665 22.067610 1.060665
v 1.500000 22.500000 0.000000
v 1.060665 22.067610 -1.060665
v 0.000000 21.758326 -1.500000
v 0.000000 -0.801960 0.000000
v 0.000000 23.118059 0.000000
v -1.426620 19.399126 -1.426620
v 0.000000 19.399126 -2.017545
v 1.426620 19.399126 -1.426620
v 2.017545 19.399126 0.000000
v 1.426620 19.399126 1.426620
v 0.000000 19.399126 2.017545
v -1.426620 19.399126 1.426620
v -2.017545 19.399126 0.000000
v 2.040600 16.851376 -0.530610
v 0.000000 17.839472 -0.750405
v -2.040600 16.851376 -0.530610
v -2.885850 16.192650 0.000000
v -2.040600 16.851376 0.530610
v 0.000000 17.839472 0.750405
v 2.040600 16.851376 0.530610
v 2.885850 16.192650 0.000000
v 0.114075 34.790253 -0.064455
v 0.000000 34.790253 -0.091155
v -0.114075 34.790253 -0.064455
v -0.161055 34.790253 0.000000
v -0.114075 34.790253 0.064455
v 0.000000 34.790253 0.091155
v 0.114075 34.790253 0.064455
v 0.161055 34.790253 0.000000
v 0.000000 14.004735 0.000000
v 0.000000 34.790253 0.000000
v 2.915145 21.212175 -0.530610
v 4.122645 21.212175 0.000000
v 2.915145 21.212175 0.530610
v 0.000000 21.212175 0.750405
v -2.915145 21.212175 0.530610
v -4.122645 21.212175 0.000000
v -2.915145 21.212175 -0.530610
v 0.000000 21.212175 -0.750405
v 1.885650 28.144756 -0.530610
v 2.666715 28.144756 0.000000
v 1.885650 28.144756 0.530610
v 0.000000 28.144756 0.750405
v -1.885650 28.144756 0.530610
v -2.666715 28.144756 0.000000
v -1.885650 28.144756 -0.530610
v 0.000000 28.144756 -0.750405
vt 0.184473 0.626894
vt 0.166580 0.596284
vt 0.744387 0.568031
vt 0.740085 0.613910
vt 0.166146 0.921423
vt 0.184221 0.890898
vt 0.739867 0.904792
vt 0.744106 0.950686
vt 0.197487 0.858558
vt 0.738354 0.858994
vt 0.184283 0.826184
vt 0.739894 0.813203
vt 0.166393 0.795572
vt 0.744195 0.767323
vt 0.166339 0.722133
vt 0.184413 0.691607
vt 0.740056 0.705500
vt 0.744293 0.751394
vt 0.197679 0.659267
vt 0.738546 0.659702
vt 0.137422 0.858355
vt 0.137614 0.659069
vt 0.861905 0.859234
vt 0.841960 0.912044
vt 0.815803 0.889299
vt 0.803453 0.859086
vt 0.815908 0.828932
vt 0.842156 0.806301
vt 0.862096 0.659948
vt 0.842148 0.712757
vt 0.815992 0.690011
vt 0.803644 0.659797
vt 0.816101 0.629643
vt 0.842349 0.607013
vt 0.222817 0.486894
vt 0.251892 0.427982
vt 0.349529 0.428076
vt 0.349285 0.513270
vt 0.222930 0.369013
vt 0.349449 0.342881
vt 0.201598 0.341521
vt 0.349144 0.304430
vt 0.315078 0.278257
vt 0.336464 0.250805
vt 0.462932 0.277181
vt 0.462552 0.315632
vt 0.365539 0.191893
vt 0.463176 0.191987
vt 0.336577 0.132925
vt 0.463096 0.106792
vt 0.315245 0.105432
vt 0.462791 0.068341
vt 0.201431 0.514345
vt 0.348905 0.551721
vt 0.137837 0.427872
vt 0.251484 0.191783
vt 0.471043 0.547200
vt 0.468418 0.546842
vt 0.469634 0.543661
vt 0.471675 0.542561
vt 0.473347 0.544167
vt 0.473668 0.547557
vt 0.472452 0.550738
vt 0.470411 0.551838
vt 0.468739 0.550232
vt 0.550739 0.483421
vt 0.552218 0.510866
vt 0.666024 0.109587
vt 0.664493 0.137029
vt 0.664168 0.192181
vt 0.664386 0.247332
vt 0.665865 0.274777
vt 0.552377 0.345676
vt 0.550846 0.373118
vt 0.550521 0.428269
vt 0.744979 0.431872
vt 0.745353 0.434165
vt 0.859011 0.186660
vt 0.858632 0.188953
vt 0.858552 0.192368
vt 0.858626 0.195783
vt 0.859000 0.198076
vt 0.745364 0.422749
vt 0.744985 0.425042
vt 0.744905 0.428457
vn -0.745579 -0.075883 -0.662083
vn -0.995773 -0.091850 0.000000
vn -1.000000 -0.000797 0.000000
vn -0.707777 -0.000957 -0.706436
vn -0.995773 -0.091850 0.000000
vn -0.745579 -0.075883 0.662083
vn -0.707777 -0.000957 0.706436
vn -1.000000 -0.000797 0.000000
vn -0.745579 -0.075883 0.662083
vn 0.000000 -0.062792 0.998027
vn 0.000000 -0.001110 0.999999
vn -0.707777 -0.000957 0.706436
vn 0.000000 -0.062792 0.998027
vn 0.745579 -0.075883 0.662083
vn 0.707777 -0.000957 0.706436
vn 0.000000 -0.001110 0.999999
vn 0.745579 -0.075883 0.662083
vn 0.995773 -0.091850 0.000000
vn 1.000000 -0.000797 0.000000
vn 0.707777 -0.000957 0.706436
vn 0.995773 -0.091850 0.000000
vn 0.745579 -0.075883 -0.662083
vn 0.707777 -0.000957 -0.706436
vn 1.000000 -0.000797 0.000000
vn 0.745579 -0.075883 -0.662083
vn 0.000000 -0.062792 -0.998027
vn 0.000000 -0.001110 -0.999999
vn 0.707777 -0.000957 -0.706436
vn 0.000000 -0.062792 -0.998027
vn -0.745579 -0.075883 -0.662083
vn -0.707777 -0.000957 -0.706436
vn 0.000000 -0.001110 -0.999999
vn -0.745579 -0.075883 0.662083
vn -0.995773 -0.091850 0.000000
vn 0.000000 -1.000000 0.000000
vn 0.000000 -0.062792 0.998027
vn 0.745579 -0.075883 0.662083
vn 0.000000 -0.062792 0.998027
vn 0.000000 -1.000000 0.000000
vn 0.995773 -0.091850 0.000000
vn 0.745579 -0.075883 -0.662083
vn 0.995773 -0.091850 0.000000
vn 0.000000 -1.000000 0.000000
vn 0.000000 -0.062792 -0.998027
vn -0.745579 -0.075883 -0.662083
vn 0.000000 -0.062792 -0.998027
vn 0.000000 -1.000000 0.000000
vn -0.995773 -0.091850 0.000000
vn 0.000000 1.000000 0.000000
vn -0.860389 0.509638 0.000000
vn -0.631261 0.387961 0.671562
vn 0.000000 0.377445 0.926032
vn 0.000000 1.000000 0.000000
vn 0.000000 0.377445 0.926032
vn 0.631261 0.387961 0.671562
vn 0.860389 0.509638 0.000000
vn 0.000000 1.000000 0.000000
vn 0.860389 0.509638 0.000000
vn 0.631261 0.387961 -0.671562
vn 0.000000 0.377445 -0.926032
vn 0.000000 1.000000 0.000000
vn 0.000000 0.377445 -0.926032
vn -0.631261 0.387961 -0.671562
vn -0.860389 0.509638 0.000000
vn 0.000000 -0.001110 -0.999999
vn -0.707777 -0.000957 -0.706436
vn -0.631261 0.387961 -0.671562
vn 0.000000 0.377445 -0.926032
vn 0.707777 -0.000957 -0.706436
vn 0.000000 -0.001110 -0.999999
vn 0.000000 0.377445 -0.926032
vn 0.631261 0.387961 -0.671562
vn 1.000000 -0.000797 0.000000
vn 0.707777 -0.000957 -0.706436
vn 0.631261 0.387961 -0.671562
vn 0.860389 0.509638 0.000000
vn 0.707777 -0.000957 0.706436
vn 1.000000 -0.000797 0.000000
vn 0.860389 0.509638 0.000000
vn 0.631261 0.387961 0.671562
vn 0.000000 -0.001110 0.999999
vn 0.707777 -0.000957 0.706436
vn 0.631261 0.387961 0.671562
vn 0.000000 0.377445 0.926032
vn -0.707777 -0.000957 0.706436
vn 0.000000 -0.001110 0.999999
vn 0.000000 0.377445 0.926032
vn -0.631261 0.387961 0.671562
vn -1.000000 -0.000797 0.000000
vn -0.707777 -0.000957 0.706436
vn -0.631261 0.387961 0.671562
vn -0.860389 0.509638 0.000000
vn -0.707777 -0.000957 -0.706436
vn -1.000000 -0.000797 0.000000
vn -0.860389 0.509638 0.000000
vn -0.631261 0.387961 -0.671562
vn 0.194082 -0.135057 -0.971644
vn 0.000000 -0.072087 -0.997398
vn 0.000000 0.000644 -1.000000
vn 0.234373 0.002894 -0.972142
vn 0.000000 -0.072087 -0.997398
vn -0.194082 -0.135057 -0.971644
vn -0.234373 0.002894 -0.972142
vn 0.000000 0.000644 -1.000000
vn -0.194082 -0.135057 -0.971644
vn -0.260183 -0.185124 -0.947646
vn -0.455654 0.008354 -0.890118
vn -0.234373 0.002894 -0.972142
vn -0.260183 -0.185124 0.947646
vn -0.194082 -0.135057 0.971644
vn -0.234373 0.002894 0.972142
vn -0.455654 0.008354 0.890118
vn -0.194082 -0.135057 0.971644
vn 0.000000 -0.072088 0.997398
vn 0.000000 0.000644 1.000000
vn -0.234373 0.002894 0.972142
vn 0.000000 -0.072088 0.997398
vn 0.194082 -0.135057 0.971644
vn 0.234373 0.002894 0.972142
vn 0.000000 0.000644 1.000000
vn 0.194082 -0.135057 0.971644
vn 0.260183 -0.185124 0.947646
vn 0.455654 0.008354 0.890118
vn 0.234373 0.002894 0.972142
vn 0.260183 -0.185124 -0.947647
vn 0.194082 -0.135057 -0.971644
vn 0.234373 0.002894 -0.972142
vn 0.455654 0.008354 -0.890118
vn -0.194082 -0.135057 -0.971644
vn 0.000000 -0.072087 -0.997398
vn 0.000000 -0.255773 -0.966737
vn -0.260183 -0.185124 -0.947646
vn -0.194082 -0.135057 0.971644
vn -0.260183 -0.185124 0.947646
vn 0.000000 -0.255773 0.966737
vn 0.000000 -0.072088 0.997398
vn 0.194082 -0.135057 0.971644
vn 0.000000 -0.072088 0.997398
vn 0.000000 -0.255773 0.966737
vn 0.260183 -0.185124 0.947646
vn 0.194082 -0.135057 -0.971644
vn 0.260183 -0.185124 -0.947647
vn 0.000000 -0.255773 -0.966737
vn 0.000000 -0.072087 -0.997398
vn 0.000000 1.000000 0.000000
vn 0.000000 0.101887 -0.994796
vn -0.261319 0.137934 -0.955346
vn -0.570206 0.212913 -0.793432
vn 0.000000 1.000000 0.000000
vn -0.570206 0.212913 0.793432
vn -0.261319 0.137934 0.955346
vn 0.000000 0.101887 0.994796
vn 0.000000 1.000000 0.000000
vn 0.000000 0.101887 0.994796
vn 0.261319 0.137934 0.955346
vn 0.570206 0.212913 0.793431
vn 0.000000 1.000000 0.000000
vn 0.570206 0.212914 -0.793431
vn 0.261320 0.137935 -0.955346
vn 0.000000 0.101887 -0.994796
vn 0.455654 0.008354 -0.890118
vn 0.234373 0.002894 -0.972142
vn 0.232340 0.061741 -0.970673
vn 0.495449 0.115580 -0.860913
vn 0.234373 0.002894 0.972142
vn 0.455654 0.008354 0.890118
vn 0.495449 0.115580 0.860913
vn 0.232340 0.061741 0.970673
vn 0.000000 0.000644 1.000000
vn 0.234373 0.002894 0.972142
vn 0.232340 0.061741 0.970673
vn 0.000000 0.033550 0.999437
vn -0.234373 0.002894 0.972142
vn 0.000000 0.000644 1.000000
vn 0.000000 0.033550 0.999437
vn -0.232340 0.061741 0.970673
vn -0.455654 0.008354 0.890118
vn -0.234373 0.002894 0.972142
vn -0.232340 0.061741 0.970673
vn -0.495449 0.115580 0.860913
vn -0.234373 0.002894 -0.972142
vn -0.455654 0.008354 -0.890118
vn -0.495449 0.115580 -0.860913
vn -0.232340 0.061741 -0.970673
vn 0.000000 0.000644 -1.000000
vn -0.234373 0.002894 -0.972142
vn -0.232340 0.061741 -0.970673
vn 0.000000 0.033550 -0.999437
vn 0.234373 0.002894 -0.972142
vn 0.000000 0.000644 -1.000000
vn 0.000000 0.033550 -0.999437
vn 0.232340 0.061741 -0.970673
vn 0.495449 0.115580 -0.860913
vn 0.232340 0.061741 -0.970673
vn 0.261320 0.137935 -0.955346
vn 0.570206 0.212914 -0.793431
vn 0.232340 0.061741 0.970673
vn 0.495449 0.115580 0.860913
vn 0.570206 0.212913 0.793431
vn 0.261319 0.137934 0.955346
vn 0.000000 0.033550 0.999437
vn 0.232340 0.061741 0.970673
vn 0.261319 0.137934 0.955346
vn 0.000000 0.101887 0.994796
vn -0.232340 0.061741 0.970673
vn 0.000000 0.033550 0.999437
vn 0.000000 0.101887 0.994796
vn -0.261319 0.137934 0.955346
vn -0.495449 0.115580 0.860913
vn -0.232340 0.061741 0.970673
vn -0.261319 0.137934 0.955346
vn -0.570206 0.212913 0.793432
vn -0.232340 0.061741 -0.970673
vn -0.495449 0.115580 -0.860913
vn -0.570206 0.212913 -0.793432
vn -0.261319 0.137934 -0.955346
vn 0.000000 0.033550 -0.999437
vn -0.232340 0.061741 -0.970673
vn -0.261319 0.137934 -0.955346
vn 0.000000 0.101887 -0.994796
vn 0.232340 0.061741 -0.970673
vn 0.000000 0.033550 -0.999437
vn 0.000000 0.101887 -0.994796
vn 0.261320 0.137935 -0.955346
s off
f 1/1/1 2/2/2 26/3/3 19/4/4
f 2/5/5 3/6/6 25/7/7 26/8/8
f 3/6/9 4/9/10 24/10/11 25/7/12
f 4/9/13 5/11/14 23/12/15 24/10/16
f 5/11/17 6/13/18 22/14/19 23/12/20
f 6/15/21 7/16/22 21/17/23 22/18/24
f 7/16/25 8/19/26 20/20/27 21/17/28
f 8/19/29 1/1/30 19/4/31 20/20/32
f 3/6/33 2/5/34 17/21/35 4/9/36
f 5/11/37 4/9/38 17/21/39 6/13/40
f 7/16/41 6/15/42 17/22/43 8/19/44
f 1/1/45 8/19/46 17/22/47 2/2/48
f 18/23/49 10/24/50 11/25/51 12/26/52
f 18/23/53 12/26/54 13/27/55 14/28/56
f 18/29/57 14/30/58 15/31/59 16/32/60
f 18/29/61 16/32/62 9/33/63 10/34/64
f 20/20/65 19/4/66 9/33/67 16/32/68
f 21/17/69 20/20/70 16/32/71 15/31/72
f 22/18/73 21/17/74 15/31/75 14/30/76
f 23/12/77 22/14/78 14/28/79 13/27/80
f 24/10/81 23/12/82 13/27/83 12/26/84
f 25/7/85 24/10/86 12/26/87 11/25/88
f 26/8/89 25/7/90 11/25/91 10/24/92
f 19/4/93 26/3/94 10/34/95 9/33/96
f 27/35/97 28/36/98 52/37/99 45/38/100
f 28/36/101 29/39/102 51/40/103 52/37/104
f 29/39/105 30/41/106 50/42/107 51/40/108
f 30/43/109 31/44/110 49/45/111 50/46/112
f 31/44/113 32/47/114 48/48/115 49/45/116
f 32/47/117 33/49/118 47/50/119 48/48/120
f 33/49/121 34/51/122 46/52/123 47/50/124
f 34/53/125 27/35/126 45/38/127 46/54/128
f 29/39/129 28/36/130 43/55/131 30/41/132
f 31/44/133 30/43/134 43/56/135 32/47/136
f 33/49/137 32/47/138 43/56/139 34/51/140
f 27/35/141 34/53/142 43/55/143 28/36/144
f 44/57/145 36/58/146 37/59/147 38/60/148
f 44/57/149 38/60/150 39/61/151 40/62/152
f 44/57/153 40/62/154 41/63/155 42/64/156
f 44/57/157 42/64/158 35/65/159 36/58/160
f 46/54/161 45/38/162 53/66/163 54/67/164
f 47/50/165 46/52/166 54/68/167 55/69/168
f 48/48/169 47/50/170 55/69/171 56/70/172
f 49/45/173 48/48/174 56/70/175 57/71/176
f 50/46/177 49/45/178 57/71/179 58/72/180
f 51/40/181 50/42/182 58/73/183 59/74/184
f 52/37/185 51/40/186 59/74/187 60/75/188
f 45/38/189 52/37/190 60/75/191 53/66/192
f 54/67/193 53/66/194 35/76/195 42/77/196
f 55/69/197 54/68/198 42/78/199 41/79/200
f 56/70/201 55/69/202 41/79/203 40/80/204
f 57/71/205 56/70/206 40/80/207 39/81/208
f 58/72/209 57/71/210 39/81/211 38/82/212
f 59/74/213 58/73/214 38/83/215 37/84/216
f 60/75/217 59/74/218 37/84/219 36/85/220
f 53/66/221 60/75/222 36/85/223 35/76/224
